<svg id="Слой_1" data-name="Слой 1" xmlns="http://www.w3.org/2000/svg" viewBox="0 0 694 246"><defs><style>.cls-1,.cls-2{fill:#e6e6e6;stroke:#ffac00;}.cls-1,.cls-2,.cls-3{stroke-linecap:round;stroke-linejoin:round;}.cls-1{stroke-width:4.38px;}.cls-2{stroke-width:0px;}.cls-3{fill:none;stroke:#000;stroke-width:0px;}.cls-4{fill:#c0e192;}.cls-5{font-size:34px;font-family:Calibri;}.cls-6{letter-spacing:-0.02em;}.cls-7{letter-spacing:-0.02em;}.cls-8{letter-spacing:0em;}.cls-9{letter-spacing:-0.01em;}.cls-10{letter-spacing:-0.03em;}.cls-11{letter-spacing:-0.01em;}.cls-12{letter-spacing:-0.01em;}.cls-13{letter-spacing:-0.01em;}.cls-14{letter-spacing:-0.01em;}.cls-15{letter-spacing:-0.01em;}.cls-16{letter-spacing:0em;}.cls-17{letter-spacing:0em;}.cls-18{letter-spacing:-0.03em;}.cls-19{letter-spacing:-0.01em;}.cls-20{letter-spacing:-0.01em;}</style></defs><rect class="cls-1" x="-0.26" y="-0.12" width="694.29" height="246.48"/><rect class="cls-2" x="26.59" y="24.89" width="0.56" height="0.33"/><path class="cls-3" d="M26.62,24.91h0"/><rect class="cls-4" x="26.62" y="24.91"/><text class="cls-5" transform="translate(25.98 47.77)">Воспитанник <tspan class="cls-6" x="194.52" y="0">О</tspan><tspan x="216.4" y="0">лег </tspan><tspan class="cls-7" x="270.11" y="0">х</tspan><tspan x="284.3" y="0">орошо справился</tspan><tspan x="0" y="40.8">с упр</tspan><tspan class="cls-8" x="73.01" y="40.8">а</tspan><tspan x="89.2" y="40.8">жнени</tspan><tspan class="cls-9" x="184.28" y="40.8">е</tspan><tspan x="201" y="40.8">м, </tspan><tspan class="cls-10" x="240.16" y="40.8">о</tspan><tspan x="257.14" y="40.8">дна</tspan><tspan class="cls-11" x="310.58" y="40.8">к</tspan><tspan x="325.87" y="40.8">о </tspan><tspan class="cls-9" x="351.49" y="40.8">ем</tspan><tspan x="391" y="40.8">у по</tspan><tspan class="cls-12" x="449.7" y="40.8">к</tspan><tspan x="464.98" y="40.8">азалось</tspan><tspan x="0" y="81.6">смешным </tspan><tspan class="cls-13" x="150.56" y="81.6">т</tspan><tspan x="163.34" y="81.6">о, </tspan><tspan class="cls-12" x="197.44" y="81.6">к</tspan><tspan x="212.72" y="81.6">ак д</tspan><tspan class="cls-14" x="271.44" y="81.6">р</tspan><tspan x="289.05" y="81.6">угие </tspan><tspan class="cls-15" x="359.17" y="81.6">д</tspan><tspan class="cls-16" x="377.83" y="81.6">е</tspan><tspan x="394.62" y="81.6">ти произносили</tspan><tspan x="0" y="122.4">фра</tspan><tspan class="cls-17" x="55.37" y="122.4">з</tspan><tspan class="cls-18" x="69.58" y="122.4">у</tspan><tspan x="84.09" y="122.4">. Он начал </tspan><tspan class="cls-7" x="240.46" y="122.4">х</tspan><tspan class="cls-19" x="254.65" y="122.4">о</tspan><tspan class="cls-7" x="272.17" y="122.4">х</tspan><tspan class="cls-14" x="286.36" y="122.4">о</tspan><tspan x="304.04" y="122.4">т</tspan><tspan class="cls-8" x="317.21" y="122.4">а</tspan><tspan x="333.39" y="122.4">ть и пер</tspan><tspan class="cls-20" x="448.76" y="122.4">е</tspan><tspan x="465.21" y="122.4">дразнив</tspan><tspan class="cls-8" x="585.55" y="122.4">а</tspan><tspan x="601.74" y="122.4">ть</tspan><tspan x="0" y="163.2">своих </tspan><tspan class="cls-10" x="89.38" y="163.2">о</tspan><tspan x="106.37" y="163.2">дног</tspan><tspan class="cls-14" x="173.2" y="163.2">р</tspan><tspan x="190.82" y="163.2">уппни</tspan><tspan class="cls-11" x="278.16" y="163.2">к</tspan><tspan x="293.45" y="163.2">ов.</tspan></text></svg>