<svg id="Слой_1" data-name="Слой 1" xmlns="http://www.w3.org/2000/svg" viewBox="0 0 1306 151"><defs><style>.cls-1{fill:#d9d9d9;fill-rule:evenodd;}.cls-2,.cls-3,.cls-4{isolation:isolate;}.cls-3,.cls-4,.cls-5{font-size:37.5px;}.cls-3{font-family:Arial-BoldMT, Arial;font-weight:700;}.cls-4,.cls-5{font-family:ArialMT, Arial;}</style></defs><path class="cls-1" d="M1305.84.27H100.31L-.08,74.71l100.39,76.11H1305.84Z"/><g class="cls-2"><text class="cls-3" transform="translate(107.59 85.94)">Вопро</text><text class="cls-3" transform="translate(225.55 85.94)">с</text><text class="cls-3" transform="translate(246.4 85.94)">:</text></g><g class="cls-2"><text class="cls-4" transform="translate(269.31 85.94)">Правильно ли пост</text><text class="cls-4" transform="translate(603 85.94)">у</text><text class="cls-4" transform="translate(621.75 85.94)">п</text><text class="cls-5" transform="translate(642.06 85.94)">ила в</text><text class="cls-4" transform="translate(735.66 85.94)">о</text><text class="cls-4" transform="translate(756.52 85.94)">с</text><text class="cls-5" transform="translate(775.27 85.94)">пит</text><text class="cls-4" transform="translate(833.27 85.94)">а</text><text class="cls-4" transform="translate(853.3 85.94)">т</text><text class="cls-4" transform="translate(870.06 85.94)">е</text><text class="cls-4" transform="translate(889.67 85.94)">л</text><text class="cls-4" transform="translate(911.55 85.94)">ь</text><text class="cls-5" transform="translate(931.09 85.94)"><tspan xml:space="preserve"> Т</tspan></text><text class="cls-4" transform="translate(962.3 85.94)">у</text><text class="cls-4" transform="translate(981.06 85.94)">г</text><text class="cls-4" transform="translate(994.74 85.94)">у</text><text class="cls-4" transform="translate(1013.06 85.94)">с</text><text class="cls-4" transform="translate(1032.23 85.94)">о</text><text class="cls-4" transform="translate(1053.1 85.94)">в</text><text class="cls-4" transform="translate(1072.59 85.94)">а</text><text class="cls-4" transform="translate(1093.45 85.94)"> </text><text class="cls-5" transform="translate(1103.87 85.94)">Н.Р</text><text class="cls-4" transform="translate(1159.3 85.94)">.</text><text class="cls-4" transform="translate(1169.71 85.94)">?</text></g></svg>