<?xml version="1.0" encoding="utf-8"?>
<!-- Generator: Adobe Illustrator 26.3.1, SVG Export Plug-In . SVG Version: 6.00 Build 0)  -->
<svg version="1.1" id="Слой_1" xmlns="http://www.w3.org/2000/svg" xmlns:xlink="http://www.w3.org/1999/xlink" x="0px" y="0px"
	 viewBox="0 0 496 980" enable-background="new 0 0 496 980" xml:space="preserve">
<path fill-rule="evenodd" clip-rule="evenodd" fill="#F1BA93" d="M126.1,854c0.3-9.3,0.1-39.2-0.4-55.1c-0.3-7.8,3.2-13,4.1-16.7
	c2.8-11.2,8.4-23.7,12.3-27.4c4-4,8.7-7.2,13.9-9.4c5.9-2.4,13.5-5.7,23.2-0.9s14.2,9,18.6,19s6.4,14.4,7.7,20.9
	s-2.9,77.6-17.7,154.8s-36.5,186.3-38.3,194.9s-7.6,16,1.7,31.7s19.7,33.3,20.7,39.2s1.2,10.4-12.9,13.4s-35.9,9.6-41.5,4.5
	s-20,0-12.5-30.5c8.5-34.6,6.2-117.9,6.8-133.3s8.6-139.5,9.5-145.6S125.6,869.1,126.1,854z"/>
<path fill-rule="evenodd" clip-rule="evenodd" fill="#FFCDA2" d="M52.3,1162.8c0.1,12.2-8.7,42.2-8.3,53.6s8.7,26.4,11.9,29.1
	s7.1,2.9,23.7-0.4s31.8-7.5,35.2-11.2s6.2-6.7-2.9-20.1s-24.8-33.5-24.1-41.6s8-62.9,9.3-72.7s13.8-108.4,15.6-122.2
	s14.4-124.6,14.6-130.4s5.8-49.3-0.8-59.4s-17.3-23.2-25.2-25.6s-30.9-0.8-39.1,5.6s-15.1,20.1-16.6,33.8s-6.9,59.2-7.2,84.3
	s4.7,123.2,5.3,136.8s4.5,90.5,4.8,97.6S52.2,1150.7,52.3,1162.8z"/>
<path fill-rule="evenodd" clip-rule="evenodd" fill="#5A493E" d="M51.1,562.4c0,0-42.9,72.5-39.6,115.2s25.8,158.8,25.4,210.4
	c-0.3,43.6,151.1,21,159.3,15.1s24,5.5,37.4-142.9c2.9-32.3,3.5-139.8,3.5-139.8l-5.4-63.5L51.1,562.4z"/>
<path fill-rule="evenodd" clip-rule="evenodd" fill="#43352C" d="M174.9,558.7c0,0-7.1,69.9-2.7,72.7S119,909.3,129.6,912.7
	s65.1-5.8,74.5-13.9c9.7-8.4,25.5-58.8,30-155.2c0.2-3.8,3.2-118.5,2-121.8s-7.5-62.2-9.1-67.7S174.9,558.7,174.9,558.7z"/>
<path fill-rule="evenodd" clip-rule="evenodd" fill="#462013" d="M75.8,244c-2.2,0.5-6.9,0.4-7.9,0.5s1.8,1.9,5.8,3.8
	s12.6,6.3,17.6,6.1s10.4-1.2,15-6.8s5.8-10.2,5.9-8.7s1.6,12.7-1.3,16.8c-2.9,4.1-10.8,9.5-10,10.1s9.9-0.5,15.3-1
	s18.5-3.4,20.9-3.8s73.6-1.5,77.1-0.8s16.5,1.2,21.6,1s21.3-1.4,20.4-1.8s-8-4.2-9.9-7.6s-3.9-5.4-3.8-12.7s1.3-2.4,3.9,0.1
	s7.3,6.8,11.1,7.9s7.3,0.1,10.6-0.9s15.8-7.7,14.7-7.9s-6,1.4-10,0.3s-9.3-2.4-11.9-5.6s-7-6.4-7-9.1s14.6-33,17.9-34.7
	s6.1-7.3,7.8-11.1s1.7-8.7,2.5-14.7s0.4-15.8,0.5-18.2s-2.5-23.1-2.5-21.2s1.3,21.1,1.2,25.6s-2.3,17-3.9,21.3s-4.6,12-4.5,9.5
	s4.1-11,3.2-14.9s-5-10.3-7.7-12.4s-10.9-2.4-13.9-3.5s-11.4-8.6-12.9-9.1s-7-1.7-11.2-4.1s-6.9-4.7-11-9.5s-11.3-13.9-12.6-17
	S202,98.3,202,98.3s-1.6-1.2-2.8,5.2s-3.9,13.8-1.8,20.9s8.5,18.3,7.7,19s-4.6-6.1-6.7-8.1s-6.1-8.3-10.4-14.6s-9.5-15-10.8-18.5
	s-4.1-18.7-5.4-17.8s-15.5,18.3-17.7,21s-13.1,15.4-15.6,19.3c-2.5,3.9-12.5,15.6-14.1,19.8s-2.7,16-3.7,21.8s-0.5,6-1,5.7
	s-3.4-4.6-5.7-11.6c-1.7-4.7-2.7-9.6-3-14.5c-0.4-4-3.1-14.6-3.1-15.6s-1.2,11.6-1.2,11.6s-2.5-0.5-5.7,1.7s-1.1,44.4-0.9,48.3
	s1.9,25.1,2,28.9s-3,8.9-4.8,12.2s-4.7,9.6-9.2,10.5s-6.5,2-7.7,1.7S78.1,243.4,75.8,244z"/>
<path fill-rule="evenodd" clip-rule="evenodd" fill="#FFCDA2" d="M144.7,241.8c0,0-0.4,14.7-0.4,18.8s-0.3,11.7-2,16.8
	s-2.7,7.1-10.5,11.3s-9.6,4.3-16,5.6s-3,14.5,4.2,20.4s45.5,15.9,59.2,14.1s40.7-10.5,42.9-16.9c1.4-4.9,2.3-9.9,2.7-15
	c0,0-12.2-3.4-16-4.8s-8.8-3.3-12.9-6.5s-7.9-5.9-7.5-11.4s3.4-17.8,3.4-17.8L144.7,241.8z"/>
<path fill-rule="evenodd" clip-rule="evenodd" fill="#F2B893" d="M154.3,261.3c0,0,6.7,6.4,13.7,9.4s9.5,3.6,12.9,3.9
	c2.4,0.1,4.8,0.1,7.2-0.2c0.1-2.4,0.4-4.9,0.9-7.3c0.7-3.3,2.1-9.8,2.1-9.8l-46.3-15.6l-0.4,11.1c0,0,5.4,5.3,6.9,6.4L154.3,261.3z"
	/>
<path fill-rule="evenodd" clip-rule="evenodd" fill="#FCD4B1" d="M126,301.2c0,0,16.6-0.1,21.5,0.4s23.9,3.7,25.1,4.3s5,2.8,7.5,2.2
	s3.4-1.8,6-3.9s8.9-3.1,13.5-3.5s12.2-0.7,13.4-0.5s2.4,0.2,0.2,4s-5.5,10.6-12,13.2s-23.2,4.5-31,3.9s-18.7-3.8-25.8-6.2
	s-19.8-12.2-19.8-12.2L126,301.2z"/>
<path fill-rule="evenodd" clip-rule="evenodd" fill="#F2B893" d="M185.4,295c0,0,0.6,4,0.1,6s-2,4.5-0.3,4.3s4.1-2.8,8-3.2l7.5-0.8
	c5.2-0.6,10.9-1,11.7-0.8s0.9-0.7,0.2-0.7l-13.3,0.1c-2.2,0-8.5,1-9.7,0.1c-1.3-1.1-2.3-2.5-2.8-4.1c-0.6-1.8-1.8-6.6-2.1-6.3
	S185.4,295,185.4,295z"/>
<path fill-rule="evenodd" clip-rule="evenodd" fill="#F2B893" d="M167.2,294.2c0,0,3.3,6.7,4,8.2s2.8,4.8,2.2,5.3s-4.4-2.1-7.2-2.9
	c-3.5-1-7.1-1.6-10.8-1.9c-4.3-0.4-15.8-1.1-18.1-1.1s-7.4-0.4-6.1-0.8s10.4-0.1,15,0s15.2,0.4,16.3-0.8s0.4-3.3-0.2-6.2
	s-1.9-9.4-2.3-11.5s-1.2-5.9-0.7-5.4s5.4,11.3,6,12.8S167.2,294.2,167.2,294.2z"/>
<path fill-rule="evenodd" clip-rule="evenodd" fill="#F2B893" d="M105.1,190.4c0,0,2.2,0.9,3.8,1.5s4.6,1.6,5.4,1.4
	s-3-22.1-3.2-23.1s-1.8-6.2-2.2-8c-0.5-2.4-0.9-4.9-1.2-7.4c-0.1-1.7,0-7.7-0.6-8l-4.3-2.4c-0.5-0.3-2.2-1.1-2.6-0.4
	s-7,11.7-6.7,13.2s0.2,13.2,1.5,14.6S105.1,190.4,105.1,190.4z"/>
<path fill-rule="evenodd" clip-rule="evenodd" fill="#FED6B2" d="M147,119.2c1.7-2.3,8.1-9.7,10-12.4s6.3-8.1,8-10.7
	s5.2-7.9,5.6-7.5s0.8,8.2,1.3,10.8s2.3,10.8,3.5,13.5s5.2,9.8,8.1,13s10.8,11.1,13,13.2s11.6,10,12.3,10.3s-0.1-1.3-0.7-2.5
	s-5-10.3-6.3-14.1s-3.2-8.1-3.6-12s0.4-11.2,0.9-14.6s1.2-7.2,1.4-4.5c0.7,5.1,1.8,10,3.2,14.9c0.9,2,3.6,8.6,5.7,11.4
	c2.1,2.8,5.8,7.2,9.3,9.5c3.3,2.2,6.8,4.1,10.5,5.7c3.5,1.5,12,4.8,15.4,6s10.7,4.1,13.5,5.5s7.7,4.5,8.5,5.7
	c2.1,2.9,3.3,6.2,3.7,9.8c0.5,5.3-0.7,15-2.2,20.4s-3.9,15.5-5.2,18.4s-5.1,9.8-6.9,13s-7.9,11.8-11.6,15s-15.4,11.6-17.9,13.3
	s-9.2,7.1-12.1,8.6s-12.7,7-13.8,7s-4.4,1.6-8.8,0.8c-6.8-1.1-13.4-3.4-19.4-6.8c-8.4-4.7-18.3-10.8-24-14.6s-12-7.8-15.7-11.3
	c-3.6-3.5-6.7-7.4-9.1-11.8c-2.5-4.8-4.6-9.9-6.2-15.1c-1.8-5.8-1.7-5.5-2.5-8s-2.4-13.5-3-19.4s-1-9.7-1-9.7c0.5,1.4,1.2,2.8,2,4.1
	c1.7,2.9,3.7,5.6,6,8l1.9,1.7c0.1-1.7,0.3-3.5,0.7-5.2c0.7-4.3,1.7-9.4,2.8-13.8c1.6-6,3.7-11.8,6.1-17.5L136,136
	c2.7-5,5.7-9.8,9.1-14.3C145.8,120.9,146.4,120,147,119.2z"/>
<path fill-rule="evenodd" clip-rule="evenodd" fill="#F3B993" d="M188.9,236.5c0.8,1.1,3.1,3.9,6.1,4s7.4,0,7.9-1.6
	S188.1,235.4,188.9,236.5z"/>
<path fill-rule="evenodd" clip-rule="evenodd" fill="#EF626C" d="M180.5,225.4c1.4,1,2.5,2.3,3.3,3.8c0.8,1.8,3,5.9,4.9,7.2
	c2.1,1.4,4.4,2.3,6.9,2.6c2.4,0.3,4.5,0.7,6.4-0.3s4.7-3.7,5.3-5.9s1.6-3.1,1-3.2c-1.2-0.2-2.4-0.1-3.6,0.3
	c-0.8,0.4-1.8,0.5-2.7,0.3l-3.4-0.5c-1.5-0.4-3-0.9-4.4-1.4c-1.4-0.2-2.7-0.3-4.1-0.4c-2.1-0.2-5-0.1-5.8-0.6
	c-0.9-0.6-1.6-1.4-2.1-2.3c-0.2-0.6-1.2-1.3-1.7-1.6s-1.1,0.2-0.8,0.7S179.8,224.8,180.5,225.4z"/>
<path fill-rule="evenodd" clip-rule="evenodd" fill="#EF626C" d="M200.6,225.2c-0.5-0.1-2.4-1.5-4.6-1.3s-6.3,1.4-7.7,1.1
	c-2.1-0.3-4.2-0.5-6.3-0.5c-0.4,0.1-0.6,0.8,0.3,1.7s3.1,2.7,8.1,3.7s12.8,2.5,14.9,1.6c1.6-0.7,3.2-1.5,4.6-2.5
	c0.9-0.6,2.8-1.8,2.5-2.1s-0.8,0.1-1.7,0c-1.3,0-2.5-0.2-3.8-0.6c-0.9-0.4-3.2-1.6-4.6-1.3S201.2,225.3,200.6,225.2z"/>
<path fill-rule="evenodd" clip-rule="evenodd" fill="#DF3E4A" d="M191.8,227c-1-0.2-3,0.1-0.4,2.4s11.1,4.9,12.3,3.5s2-3.7,0.6-4.4
	S192.8,227.2,191.8,227z"/>
<path fill-rule="evenodd" clip-rule="evenodd" fill="#F47B84" d="M184.8,229c0.5,2.2,1.7,4.2,3.4,5.6c2.1,1.6,4.8,3.6,7.9,4
	c2.6,0.2,5.3-0.4,7.6-1.6c1.3-1.3,2.4-2.8,3.1-4.5c0.2-1,0.7-2.2-0.2-2.3c-1,0-2.1,0.1-3.1,0.3c-1,0.1-2.5,0.8-3.2,0.8
	s-4-1.4-4.9-1.6c-1.6-0.6-3.2-0.9-4.9-1C188,228.7,184.6,227.9,184.8,229z"/>
<path fill-rule="evenodd" clip-rule="evenodd" fill="#F47B84" d="M182.7,225.7c0.3,0.6,3.2,2,6.1,2.2s4.7,0.2,5.8,0.7
	c1.9,0.8,3.9,1.3,6,1.5c1.6,0,3.3,0.5,4-0.1s2.8-0.4,3.5-0.9s1.7-1.4,0.8-1.6s-3.7-1.4-4.3-1.5s-1.1,0.2-2.8,0.5s-3.4-1.5-4.6-1.6
	c-1.8-0.1-3.6,0.1-5.3,0.6c-1.1,0.4-3.8,0.2-5.2,0S182.2,224.7,182.7,225.7z"/>
<path fill-rule="evenodd" clip-rule="evenodd" fill="#FED6B2" d="M107.1,146.9c0,0-3.4-3.9-6.4-3.5c-3.7,0.4-6.8,2.9-8,6.4
	c-1.7,4.4-2.7,13.9-2.2,18s1.5,10,3.9,13.2s9.1,9.8,12.3,9.7s4.6-0.1,4.9-3.8c0-3.1-0.3-6.3-1-9.4c-1.9,0.2-3.8,0-5.7-0.4
	c-2-0.5-3.6-2-4.3-3.9c-1-2.3-1.8-4.5-1.4-4.6s2.4,3.4,3.8,4.2s2.8,1.1,2.6,0.7s-2.9-0.7-3-2.9s-0.1-2.4,1.2-4
	c1.3-1.4,2.3-3.1,2.9-4.9c0.4-1.7,0.8-3.9-0.4-5.1s-3-2.9-5.1-1.4c-2.2,1.4-3.7,3.5-4.4,6c-0.7,2.7-0.7,7.3-1,7.4s-0.7-2.3-0.8-4.2
	s0-6.9,1-8.8s2.5-3.4,3.9-3.5s4,0.2,5,1.1s2.1,1.7,2.1,1.2c-0.1-1.9-0.7-3.8-1.7-5.4c-1.5-2.1-4.9-4.9-4.4-4.8c1,0.1,1.9,0.5,2.8,1
	C105,145.8,107.1,146.9,107.1,146.9z"/>
<path fill-rule="evenodd" clip-rule="evenodd" fill="#401203" d="M187.7,139.9c-3.3-2.8-10.1-8.4-15.3-10.6s-9.5-4.5-16.8-5.4
	s-14.9-0.8-14.3-0.4s12.4,1.7,15.4,2.5s12.2,2.9,16.1,6.3s11.4,9.8,12.8,11s5.2,4,5.9,3.2s0.3-1.9-1-3.4S191,142.7,187.7,139.9z"/>
<path fill-rule="evenodd" clip-rule="evenodd" fill="#3D0F00" d="M231.5,142.8c-3.1,0.8-6.1,2.1-8.7,3.9c-2.5,1.9-4.6,4.6-3.7,5.3
	s3.7-0.5,5.7-1.9c2.3-1.8,4.8-3.4,7.4-4.8c1.5-0.6,6.3-2.1,9.9-1.5s13.7,2.6,14.9,2.1c1.1-0.4-6.9-2.5-10.3-3.1s-9.2-1.1-11.8-0.7
	C233.7,142.3,232.6,142.5,231.5,142.8z"/>
<path fill-rule="evenodd" clip-rule="evenodd" fill="#663A2F" d="M74.6,244.2c2.3-0.2,4.7-0.8,6.8-1.6c2.6-1.3,6.7-3.2,7.1-7.5
	s0.9-5.8-1.4-10.3s-6.2-9.4-9.2-13.2s-8-10.8-10.3-17.1s-6-18.6-6.5-27.4s-0.8-17.2-0.8-21.4s0.6-16.3,0.8-20.5s2.6-23.9,3-26.2
	s3.8-15.2,6.1-20.6c4-8.3,8.3-16.4,13.2-24.2c2.9-4.3,8.9-13,14.1-17.1s11.7-8.5,16.1-10s5.6-1.8,8.5-1.9s5,0.8,5.6,0.5
	s2.6-3.4,5.5-5.8s11.1-8.1,15.2-9.5s12.9-3.6,18.7-3.1s26.9,3.6,35.4,6.4s24.9,7.8,37.9,17.9s27.5,25.6,32.8,36s14.1,31,16.1,43
	s4.1,30.8,3.5,37.9s-1.8,21-5.2,30s-9.5,20.6-11.9,23.9s-8,10.5-9.1,14.3s-3,9.9-0.2,13.2s3.9,4.8,10.4,5.6s10.9-0.1,10.3,0.3
	s-6,4.6-9,5s-9.2,1.6-14.3-2.3s-9.8-6.6-10.2-12.2c1.2-1.5,2.2-3.2,3.1-4.9c2.2-4.1,6.2-10.8,7.9-16.7c2.2-7.8,4.5-16.7,4.5-16.7
	c1.5-1.3,3-2.6,4.4-4.1c2.2-2.3,5.7-8,6.5-11.8s2.2-23.1,2.2-26.6s-1.1-0.4-0.9,1.2c-0.1,5.7-0.5,11.4-1.3,17
	c-0.7,4.2-3,12.1-4.6,14.4s-2.8,3.8-3,2.5s2.4-5.9,1.4-11.1s-2.6-12-8.7-15c-5.8-2.9-11.9-5.4-18.1-7.5c-5.7-1.9-15-5.4-19.1-7.8
	s-9.3-5.4-12.4-8.5s-9-12.3-10.5-15.5s-4.6-13.9-4.5-15s-1.1,5.3-1.7,8.3s-0.9,12.5,0.1,15.3s6.7,18.8,6.5,19.8s-7.4-5.5-9.6-8
	s-10.6-11.6-13.3-16.3c-3-5.5-5.6-11.2-7.8-17.1c-1.2-3.6-2.9-14.1-3.6-14.2s-7.3,8.1-8.4,9.1s-14.2,15.4-16.6,18.3
	s-12.4,17.1-14.2,20.8s-8.3,17.7-9.2,22.5s-1.9,16.4-2.6,16.6s-4.7-4.1-6.5-8.3c-2-5.3-3.5-10.7-4.6-16.2c-0.1-1.6-0.7-3.1-1.9-4.2
	c-1.1-1.1-6.2,44.4-6,49.9s3.2,26.4,0.8,32s-4.7,11.3-6.5,12.9s-6.2,5.1-8.3,5.6c-2.2,0.6-4.4,0.5-6.6-0.1
	C78.3,246.1,76.4,245.2,74.6,244.2z"/>
<path fill-rule="evenodd" clip-rule="evenodd" fill="#F2B893" d="M209.4,184.3c-0.1,1.3,1.5,7,2.5,9.6s1.5,5,0.6,6
	c-1.8,2.4-4.7,3.6-7.7,3.3c-4.5-0.5-11.7-2.1-11.4-1.2s-0.1,1.7,6.7,3.5s10.8,1.1,13.6-2.8s2.1-7.1,1-9.3s-2.3-4.5-3.2-6.2
	S209.5,183.1,209.4,184.3z"/>
<path fill-rule="evenodd" clip-rule="evenodd" fill="#F3B896" d="M222.8,172.6c-0.3-0.1-0.7-1,0.3-4.2s2.9-8.1,4.9-10.3
	s4.8-4.7,7-5.4s6-1.9,9.4-1.2s8.9,2.9,10.9,5.2s4.8,6.2,5.1,7.9s0.9,2.9,1.3,4.6S223.1,172.7,222.8,172.6z"/>
<path fill-rule="evenodd" clip-rule="evenodd" fill="#DBDCD7" d="M222,174.7c1.4,2.1,3.3,3.9,5.4,5.2c3.2,2.1,8.1,3.8,11.5,3.8
	s11-2.4,12.9-3.4s5.1-3.1,5.2-5.3s-1.7-6.8-4.1-8.9s-6.6-5.9-13.1-5.5c-4.9,0.3-9.4,2.7-12.4,6.6C225.4,169.6,221.7,174.2,222,174.7
	z"/>
<circle fill="#5A3427" cx="239.4" cy="169.3" r="14.3"/>
<path fill-rule="evenodd" clip-rule="evenodd" fill="#804F41" d="M230.4,172c0,0-3.3,1-3.3,1.5c0.7,2.3,2.2,4.3,4.2,5.5
	c3,1.7,7.3,3,10.4,2.2s5.9-2.4,7.2-4.2s2.5-2.5,2.1-3s-2.7-2.7-3-2.3S230.4,172,230.4,172z"/>
<circle fill="#1C0001" cx="240.1" cy="168.6" r="9.6"/>
<ellipse transform="matrix(0.1774 -0.9841 0.9841 0.1774 26.0719 364.6462)" fill="#F5F5F5" cx="231.2" cy="166.7" rx="3.2" ry="3"/>
<path fill-rule="evenodd" clip-rule="evenodd" fill="#0F0506" d="M225.4,164.2c-0.6,1.4-3.8,10.4-3.1,10.7s2.6-5.6,6.5-9
	s6.7-5.9,12.4-5s9.6,2,12.1,5.9s3.5,6.7,3.5,7.5c-0.1,1.1-0.6,2.1-1.3,2.9c-0.7,1-2.4,2.3-2,2.6s8.1-3,9.3-3.6
	c1.9-1,3.6-2.3,5.1-3.7c0.7-0.9,2-2.2,1.3-2.3s-2.2,1.9-4.1,2s-2.5,0.3-2.1-0.2s2.5-2.2,3.2-3.8s1.9-4.8,1.2-4.7s-1.5,2-3,3
	s-3.6,2.4-4.2,1.9s-2.9-5.9-3.9-7.3s-3.3-4.7-6.3-5.8c-3.6-1.5-7.4-2.1-11.3-1.8c-2.9,0.1-5.7,1.3-7.8,3.4
	C228.7,159,226.8,161.4,225.4,164.2z"/>
<path fill-rule="evenodd" clip-rule="evenodd" fill="#F3B896" d="M186.3,170.1c0.3,0,0.9-0.7,0.9-4.1s-0.5-8.6-1.8-11.3
	s-3.2-5.9-5.1-7.2s-5.2-3.5-8.7-3.9s-9.4,0.2-11.9,1.8s-6.4,4.6-7.1,6.1s-1.7,2.6-2.6,4S186,170.1,186.3,170.1z"/>
<path fill-rule="evenodd" clip-rule="evenodd" fill="#DBDCD7" d="M186.5,172.3c-2,1.6-4.2,2.8-6.7,3.4c-3.7,1-8.9,1.2-12,0.3
	s-9.8-5.4-11.4-7s-4-4.5-3.4-6.6s3.6-6,6.5-7.4s8-3.7,14.1-1.5c4.6,1.7,8.2,5.3,9.9,9.9C184.6,166.4,186.9,171.9,186.5,172.3z"/>
<ellipse transform="matrix(0.126 -0.992 0.992 0.126 -11.0791 311.6644)" fill="#5A3427" cx="171.3" cy="162.1" rx="14.3" ry="14.3"/>
<path fill-rule="evenodd" clip-rule="evenodd" fill="#804F41" d="M179.3,167.3c0,0,2.9,1.9,2.7,2.4c-1.3,2-3.3,3.5-5.6,4.1
	c-3.3,0.8-7.8,0.8-10.6-0.9s-5-4-5.7-6.1s-1.6-3.1-1.2-3.5s3.3-1.8,3.5-1.4S179.3,167.3,179.3,167.3z"/>
<circle fill="#1C0001" cx="173.9" cy="161.3" r="9.6"/>
<ellipse transform="matrix(0.1129 -0.9936 0.9936 0.1129 -10.2439 305.4357)" fill="#F5F5F5" cx="165.9" cy="158.5" rx="3.2" ry="3"/>
<path fill-rule="evenodd" clip-rule="evenodd" fill="#0F0506" d="M186.2,161.2c0.2,1.5,0.6,11.1-0.1,11.1s-0.8-6.1-3.6-10.5
	s-4.8-7.6-10.5-8.4s-9.7-0.8-13.3,2.2s-5.2,5.4-5.5,6.2c-0.2,1.1,0,2.2,0.4,3.2c0.4,1.1,1.7,2.9,1.1,3.1s-6.9-5.2-7.9-6.1
	c-1.5-1.5-2.8-3.2-3.8-5c-0.4-1.1-1.3-2.7-0.6-2.6s1.6,2.5,3.4,3.1s2.3,1,2,0.4s-1.8-2.8-2-4.6s-0.4-5.1,0.2-4.8s0.9,2.3,2,3.8
	s2.8,3.3,3.5,3s4.4-4.8,5.9-5.9s4.5-3.6,7.7-3.8c3.8-0.4,7.7,0.1,11.3,1.5c2.8,1,5.1,2.9,6.6,5.5
	C184.5,155.3,185.6,158.2,186.2,161.2z"/>
<path fill-rule="evenodd" clip-rule="evenodd" fill="#451F12" d="M132.9,35.7c-2.7-0.1-5.4,0.3-8,1.2c-2.5,1-7.2,3.5-8.2,4.5
	s-1.8-0.2,2.1-2.9s8.4-5,10.5-5.3s3.2-0.1,4.4-1.3s3.9-3.9,6.3-5c2.2-1.1,4.5-1.8,6.9-2.1c1.6,0,3.7,0.2,2.3,0.8s-6.6,2.1-9.7,4.6
	c-2,1.5-3.8,3.1-5.6,4.9C133.4,35.5,133.2,35.7,132.9,35.7z"/>
<path fill-rule="evenodd" clip-rule="evenodd" fill="#451F12" d="M131.8,32c-2.4-0.9-4.9-1.2-7.4-1c-3.7,0.5-10.7,3.8-10.5,3.3
	s4-3.2,7-4.2s9.5-0.3,10-1s2.1-4,3.4-5.5c2-2.1,4.3-3.9,6.8-5.4c2.7-1.5,7.5-3.9,6.9-3.3s-8.3,7.6-9.9,10.4s-3.7,6.5-4.5,6.8
	C132.9,32.3,132.3,32.3,131.8,32z"/>
<path fill-rule="evenodd" clip-rule="evenodd" fill="#F1BA93" d="M386.2,313.7c2.3-3,14.6-24.9,16.5-27.7s5.8-11.1,9-19.2
	s5.5-13.4,11.6-20.2s12.1-10.9,14-13.7s16.6-21,24.2-26s21.9-13.7,22.8-12.4s3.2,5.5,1.7,8.6s-14.9,13.2-17.6,16.4s-8.6,11.3-7.4,11
	s12.7-5,13.2-3.4c0.7,2.4,0.8,5,0.3,7.5l-1,4c1.5,1.4,2.1,3.5,1.7,5.4c-0.5,3.7-0.1,6.9-1.1,7.4s2.7-2.4,2.7,0.6s-1.4,7.2-2.1,9.2
	s0.9,2,1.4,4.2s1.1,6.5-0.9,9.1s-5.6,8.2-9.5,10.9s-9.2,5.3-9.8,4.8s0.6-1.6-3,0.8s-10,7.8-15.4,9s-5.4,0.5-8.7,7.4
	s-6.6,16.4-8.4,20s-7.5,15.1-8.5,17s-3.5,8.8-5.2,8S384,316.7,386.2,313.7z"/>
<path fill-rule="evenodd" clip-rule="evenodd" fill="#FFCDA2" d="M484.8,197.2c0-0.6,0-2.5-1.4-1.9s-11.4,7.5-13.5,9.1
	s-8.9,7.7-10.4,9.1s-10.4,11.4-11.8,12.8s-5.3,7-6.8,8.3s-11.7,11-13.8,13.4s-8.5,10.8-11,14.8c-2.6,4.3-5,8.8-7.1,13.4
	c-1,2.2-2.4,7.8-3.2,9s-7.2,13.5-8.3,15.7s-9.2,13.5-8.9,14s14.3,28.9,15.9,32.2s2,6.3,2.8,5.4s-0.6-7.6,0.5-9.5
	s16.2-27.7,17.2-30.5s4.2-10.4,3.7-10.6s2.9-1.7,4.8-2.4c3-1.1,6-2.4,8.9-3.8l8-4.1c1.8-0.9,5.4-5,5.4-5.6s0.8-2.9,0-2.9
	s-3.1,2-3.9,1.4s-1.9-3.1-1.5-5.9s0.9-4.6-0.4-4.8s-1.1-1.7-2.1-2.2s-2.3,2-3.6,4.1s-7,8.2-9.4,10c-1.4,1.1-2.9,2.1-4.5,3
	c0,0,5.2-6,6.6-7.7c2.3-2.9,4.3-5.9,6.2-9c1.7-3.4,3.1-7,4.2-10.6c0.5-2,2-8.5,2.2-9.2s2.9-2,4-2.4s6.3-2.9,7.9-3.8s6.2-3.5,7.5-5.5
	c1.4-2.5,2.4-5.2,2.9-8.1c0.1-2.2,1.1-3-2.4-1.7l-13.8,5.2c-2,0.7-10,3.5-12.5,5.4s-5.9,7.5-7.4,9.8c-2.1,2.8-4.3,5.5-6.8,8l-1.2,1
	c0,0,3.3-6.2,5.1-8.8s4.6-8.1,6.4-9.6s7.1-5.3,10.6-6.7s6.6-1.8,7.1-2.4s4.9-8.9,6.9-10.8s8.1-8.9,11.5-11s7.3-5.2,8.4-7.9
	C484.3,201.1,484.8,199.1,484.8,197.2z"/>
<path fill-rule="evenodd" clip-rule="evenodd" fill="#FFCDA2" d="M455.8,250.1c-1.4,0.5-4.6,1.2-4.6,2.3s-0.8,5.6-0.1,5.1
	s2.8-4.4,3.8-4.8S457.1,249.5,455.8,250.1z"/>
<path fill-rule="evenodd" clip-rule="evenodd" fill="#FFCDA2" d="M455.6,254.5c-1,0.5-4.5,3.7-5,4.6c-0.7,2-1.3,4-1.6,6.1
	c-0.2,1.8,0.2,5,1.8,5.5s5.4-1.3,7.5-3.4c2.9-2.9,5.6-6.1,8.1-9.4c1.9-2.7,3.5-5.6,4.9-8.6c0.8-2.3,1.2-4.7,1.4-7.1
	c0-0.9-0.2-2.3-1-1.3s-2.1,3.5-5.2,4.8s-6.5,1.9-7,2.5c-0.7,1.5-1.3,3.2-1.6,4.9c-0.2,1.2-0.1,2.9-0.4,2.5S456.7,254,455.6,254.5z"
	/>
<path fill-rule="evenodd" clip-rule="evenodd" fill="#FFCDA2" d="M453.1,272.5c-1,0.9-1.8,1.5-1.5,4s1.2,6.5,2.9,5.6
	s11.3-11.1,13.1-13.5c2.5-3.7,4.7-7.6,6.7-11.6c0.8-2.1,1.5-4.3,2-6.5c0.1-0.6-0.8-3.5-1.7-2.2s-1.6,4-2.8,5.8
	c-2.3,3.1-4.7,6.1-7.2,8.9c-1.2,1.2-6,5.5-7.1,6.5S454,271.8,453.1,272.5z"/>
<path fill-rule="evenodd" clip-rule="evenodd" fill="#FFCDA2" d="M473.5,263.1c-0.8,0.9-3.8,6.4-4.4,7.1s-5.7,6.1-7.2,7.3
	s-3.6,2.7-4.3,4s-1.1,4.4-0.5,5.6s3.7,0.2,5.6-0.9c3.1-2,5.8-4.6,7.9-7.5c1.7-2.6,3.6-5.9,4-8c0.4-1.9,0.5-3.8,0.2-5.7
	C474.6,263.5,474.4,262,473.5,263.1z"/>
<path fill-rule="evenodd" clip-rule="evenodd" fill="#FED6B2" d="M477.2,199.3c-1,0.8-9.7,7.1-10.6,7.9s-9,8.1-10.2,9.3
	s-6,6.5-7.2,7.8s-5.1,6.2-6.2,7.6s-1.5,2.6-2.1,2.7s-4.6,4.1-6,5.3s-7.9,8.1-9.4,9.8s-7.1,9-8,10.5s-3.8,6.6-4.4,7.6
	s-3.3,6.5-3.8,7.6s-3,4.8-3.1,6s0.2,2.4-0.2,3.1s-4,7.6-4.7,9.1s-5,9.1-5.6,10.1l-4,6.8c-0.4,0.6-3.4,3.9-3.4,4.5s3.8,8.7,4.2,8.4
	s4.1-9.2,4.6-10.4s4.6-10.3,5.1-11.4s3.7-7.2,4.7-8.8c1.8-2.6,3.8-5.1,5.9-7.4c1.1-1.2,3.1-1.9,3.1-2.6s0.1-3.9,0.1-5
	c0.2-2.4,0.7-4.7,1.5-7c1.3-3.4,2.9-6.8,4.6-10c1-1.4,5-8,5.8-8.9s6.1-8.2,7.3-9.6l6.4-7.3c0.9-1,5.6-5.9,7.2-7.3s9.4-8.9,11-10.3
	l11-9.9c1.1-1,5.9-5.8,7.9-7.1s5.6-2.5,5.8-3.1s0-2.7-0.6-2.5S477.9,198.7,477.2,199.3z"/>
<path fill-rule="evenodd" clip-rule="evenodd" fill="#FED6B2" d="M441.1,243.2c-1.8,2.2-3.4,4.5-4.8,7c-1.5,3.1-2.7,4.2-2.2,4.6
	s5.1-3.9,7.5-6.1s4.5-4.6,6.2-5.6s8.3-3.4,9.2-3.8s2.6-1.2,2.3-0.4s-0.8,2.3,0.1,2.1c2.7-1.3,5.2-2.8,7.7-4.4c0.9-0.7,1.9-2,2.1-1.2
	s0.3,2.6,0.6,2.7s1.1-1.8,1.2-2.8s0.6-3.9,0.7-4.4s0-1.4-1.2-0.9s-8.4,3.8-9.8,4.4s-9,2.6-10.8,3.3c-2.5,1.1-4.9,2.5-7.3,3.9
	C442.1,242,441.6,242.5,441.1,243.2z"/>
<path fill-rule="evenodd" clip-rule="evenodd" fill="#FED6B2" d="M468,245.4c-0.5,0.3-4.4,1.8-4.8,2.3s-4,11.3-4.5,12.3
	c-0.5,1.1-0.9,2.3-1.2,3.5c-0.2,0.8,0.2,3.9,0.7,3.4s6.8-7.2,8.3-9.1c2-3,3.7-6.2,5.1-9.6c0.6-2,1-4.2,0.9-6.3
	c-0.2-0.6,0.3-1.2-1,0.3C470.5,243.4,469.3,244.5,468,245.4z"/>
<path fill-rule="evenodd" clip-rule="evenodd" fill="#FED6B2" d="M472.7,253.4c-1.7,2.8-3.7,5.5-5.9,7.9c-2.2,2.2-5,5-5.6,6.3
	s-2.6,5.5-2.4,6.2s1.2,2.2,1.7,1.5s2.5-2.8,3.9-4.3c2.1-2.2,3.9-4.7,5.5-7.3c1.8-3,3.4-6.2,4.8-9.4c0.9-2.3,1.8-3.5,1.5-4
	s-0.9-2.3-1.4-1.9s-0.9,2.6-1.2,3.1S473,252.9,472.7,253.4z"/>
<path fill-rule="evenodd" clip-rule="evenodd" fill="#FED6B2" d="M471.9,266.1c0,0-1.7,2.6-2.4,3.6c-0.9,1.3-1.9,2.5-3,3.6
	c-0.7,0.6-1.9,1.5-2.1,2.5s-0.2,3.5-0.5,4.5s-0.4,4.1,0.3,4s3.4-3,4.7-4.6s3.7-5,4.3-6.8c0.7-1.6,1-3.3,1.1-5c0-2-0.2-4.6-0.6-4.5
	S471.9,266.1,471.9,266.1z"/>
<path fill-rule="evenodd" clip-rule="evenodd" fill="#FBE9D9" d="M457.3,262.7c-0.8,0-3.1,0-4,0.8c-1,1-1.5,2.4-1.6,3.8
	c0,1.1-0.3,3,0,3.2s6-2.4,6.3-3.5S458.4,262.8,457.3,262.7z"/>
<path fill-rule="evenodd" clip-rule="evenodd" fill="#FBE9D9" d="M458.4,272.9c-0.9,0.3-5.1,1.8-5.2,3.4c-0.1,1.3,0.1,2.5,0.8,3.6
	c0.5,0.7,1.5,0.1,2.6-0.9s4.1-2.7,3.6-3.3S459.4,272.7,458.4,272.9z"/>
<path fill-rule="evenodd" clip-rule="evenodd" fill="#FBE9D9" d="M463.6,279.9c-0.8,0.3-2.6,0.3-3.4,1.4c-0.8,1-1.4,2.3-1.6,3.6
	c0,1,0.3,2.1,0.7,2s4.5-1.9,4.7-2.4S464.4,279.6,463.6,279.9z"/>
<path fill-rule="evenodd" clip-rule="evenodd" fill="#FBE9D9" d="M470.6,230.3c0.3,1,0,2.1-0.7,2.9c-1.2,1.6-2.8,2.8-4.6,3.5
	c-2.6,0.9-5,2.9-5.3,1s-0.7-2.6,0.3-3.2S470.6,230.3,470.6,230.3"/>
<path fill-rule="evenodd" clip-rule="evenodd" fill="#B3AAA3" d="M122.4,292.8c0,0,16.4,21.1,35.7,23.5s43.1-1.5,47.3-8.2
	s9.4-14.2,9.4-15.2s18.4,4.7,22.8,6.5s15.9,5.1,27.8,11.8c18.3,10.3,23.8,23.3,27.8,28.5c24.1,31.1,26.6,39.9,30,43.9
	c7.5,8.9,12.5,17.6,17.7,13.2c9.5-8.1,22.4-41.8,24.6-45.9c12.6-23.6,20.4-41.9,25-46.7c9.2-9.6,33.6,0.6,34.3,12.6
	c2.3,38.8-61,137.3-87.1,132.2c-15.6-3.1-43.9-28.2-58.9-49.4c-20.1-28.4-34.1-22-36.9-32s-14.4-61.1-16.3-58.4
	s-21.1,27.8-52.2,24.4s-55.3-6.9-58.9-16.7s-12.8-21.3-7.9-21.8S122.4,292.8,122.4,292.8z"/>
<path fill-rule="evenodd" clip-rule="evenodd" fill="#C2BAB0" d="M115,294c0,0-5.3-0.8-16,1.3s-16.2,4.7-18.7,6.3s-27.1,34-31.7,42
	c-14.5,24.8-15.7,50.6-20,92.6c-0.3,3.1,8.3,23.1,10.6,32.3c4.8,19.1,6.5-36.3,6.5-36.3s-12.2-35,1.9-41.5
	c19.5-8.8,53.6-20.1,52.6-18.4c-8,14.2-5.2,87.6-6.9,94.8c-3.1,13.4-58.5,123.4-58.5,123.4s20.6,14.6,58.6,17.7
	c24.3,2,86.6-2.5,86.6-2.5l4.6-43.3l21.6,38.3l29.6-16.4c0,0,1.6-134.3,0.8-136.9s21.3-2.7,31.3-30.8c2.3-6.5,6-20,1.3-34.4
	s-13.6-31.3-17.8-38.4s-11.9-43.4-14.3-44.7c-1.2-0.7-13.8-4.8-14.1-4.6c-4.2,2.1-5.5,13.5-9.6,18.2c-9.7,10.9-18.8,15.2-43.9,14
	s-32.3-4.1-42.8-14.8S115,294,115,294z"/>
<path fill-rule="evenodd" clip-rule="evenodd" fill="#B3AAA3" d="M237,446.7l-1.1,137.5l-24.2,13.1L237,446.7z"/>
<path fill-rule="evenodd" clip-rule="evenodd" fill="#B3AAA3" d="M113.5,347.1l-13.1,25.6c0,0-3.4,10.5-3.4,13s3.2,2,3.2,2
	L113.5,347.1z"/>
<path fill-rule="evenodd" clip-rule="evenodd" fill="#9C9A99" d="M363.9,359.6c0,0-7.2,16.1-12.9,24.3s-9.4,16.7-10.4,15.1
	s11.6-22.4,16-29.2C358.8,366.3,361.2,362.8,363.9,359.6z"/>
<path fill-rule="evenodd" clip-rule="evenodd" fill="#F1BA93" d="M219.4,606.1c0.5-1.1,5.1-8.5,6.3-15.9s9.1-0.6,7.7,2.3
	s-7,13-9.5,14.4S218.9,607.2,219.4,606.1z"/>
<path fill-rule="evenodd" clip-rule="evenodd" fill="#F1BA93" d="M230.8,607c1.4-0.7,9.8-8.1,11.9-10.7s5.2-8.7,4.4-9.6
	s-3.9-2.2-5.2-1.2c-2.9,2.3-5.5,5-7.8,7.8c-1,1.6-7.6,11.9-8.5,12.8S229.4,607.7,230.8,607z"/>
<path fill-rule="evenodd" clip-rule="evenodd" fill="#F1BA93" d="M219.7,605.1c0,0,3.2-8,3.6-10.9s-0.1-5.2-2.6-4s-3.2,1.1-5,3.7
	s-3,7.7-3.2,8.8S219.7,605.1,219.7,605.1z"/>
<path fill-rule="evenodd" clip-rule="evenodd" fill="#FFCDA2" d="M215.7,590.3c0,0,7,2.7,11.2,3.1s8.1,0.3,10-1.4s5.3-5.7,2.8-8.4
	s-10.6-4.1-13.3-4.9s-14.9-2.8-16.5-3.1s-12.4-3.8-15.1-4.7s-13.5-3.8-16-3.8c-3.2,0-6.3,0.2-9.5,0.7c-2.5,0.5-3.8,1.4-4.4,1.2
	s-17.1-6.3-18.9-7s-19-7.8-19.3-7.4s-8.7,31.6-8.7,31.6s28.1,6.8,31.4,7.5s4.7,0.8,6.2,2s12,9.8,14.8,11.5s17.7,10.1,20.1,11.5
	c2.2,1.4,4.7,2.2,7.3,2.4l14.3,0.1c1.4,0,13.9,0.5,15.6,0.6s4.6,0.9,8.7-2.5s11.8-11.2,14.6-16s5.6-9.5,4.6-10.4s-4.4-2.3-6.8-1
	s-7.4,5.9-10.9,9.2s-5.2,6.1-6.2,5.9s-10.2-1.6-13.1-3s-9.4-5.3-10.5-7.1s-4.3-6.1-3.7-6.7c1.8-1.1,3.9-1.6,6-1.6
	C212.1,589.1,213.9,589.6,215.7,590.3z"/>
<path fill-rule="evenodd" clip-rule="evenodd" fill="#F1BA93" d="M231.6,621.4c0,0-6.9-1.4-11-2.2s-18.6-3.5-17.9-2.6
	s15.4,3.5,17,3.9s9.3,1.2,10.3,1.2S232.2,621.8,231.6,621.4z"/>
<path fill-rule="evenodd" clip-rule="evenodd" fill="#F1BA93" d="M245.7,609.2c0,0-3.1,1.8-6.8,4.3s-8.1,6.8-9,6.8s-0.7-0.7,0.7-1.7
	s10.9-8,12.3-8.8s3.7-1.6,3.5-1.2C246.2,608.9,245.9,609.1,245.7,609.2z"/>
<path fill-rule="evenodd" clip-rule="evenodd" fill="#FBE9D9" d="M239.9,583.9c-0.8-0.7-6.7-2.7-7.7-2.2c-1.4,0.8-2,2.4-1.7,3.9
	c0.5,2.5,2.7,4.2,5.2,4.1c3.1,0,4.7-1.2,5-2.7S240.8,584.7,239.9,583.9z"/>
<path fill-rule="evenodd" clip-rule="evenodd" fill="#B3AAA3" d="M54.5,533c-18.7-16.2-31.2-38.4-35.4-62.8
	c-2.3-13.1,16.1-85.6,25.7-112.5c4.1-11.5,29.1-52.3,34.6-55.5s20.1-11.7,27-6.2s1,65.4-6,74.3s-15,31.5-17,40.7
	c-4.9,22-11.3,28.8-10.1,45.5c0.3,4.5,1.2,20.2,21.5,47.6c13.1,17.6,55.9,41.7,63.9,60c5.4,12.3-16.9,32-30.3,27
	C99.8,580.4,98.4,571.2,54.5,533z"/>
<path fill-rule="evenodd" clip-rule="evenodd" fill="#B3AAA3" d="M231,446.8c-7.8,0.9-33.5,4.6-61.9,6.9s-31.8,1.2,0.3,4.2
	s58.4-0.6,61.8-3.4S238.8,445.9,231,446.8z"/>
<path fill-rule="evenodd" clip-rule="evenodd" fill="#B3AAA3" d="M183.5,362.2c-6.9,0.3-13.8-1-20.2-3.7c-10.2-4.1-7,1.7,2.8,6.1
	s30.4,6.5,33.9,5.7s17.4-12.6,20-18.9s3.6-17.6-2.2-10.4s-8.9,15.2-13.3,16.5S186.8,362.2,183.5,362.2z"/>
<path fill-rule="evenodd" clip-rule="evenodd" fill="#B3AAA3" d="M131.2,447.2c-3.4,2.2-20.2-8.9-24.8-21.1s-8.5-23.5-1.7-13.9
	s19.4,21.8,25,25C135.3,440.4,133.6,445.7,131.2,447.2z"/>
</svg>
