<svg id="Слой_1" data-name="Слой 1" xmlns="http://www.w3.org/2000/svg" viewBox="0 0 694 402"><defs><style>.cls-1,.cls-2{fill:#e6e6e6;stroke:#ffac00;}.cls-1,.cls-2,.cls-3{stroke-linecap:round;stroke-linejoin:round;}.cls-1{stroke-width:4.38px;}.cls-2{stroke-width:0px;}.cls-3{fill:none;stroke:#000;stroke-width:0px;}.cls-4{fill:#c0e192;}.cls-5{font-size:34px;font-family:Calibri;}.cls-6{letter-spacing:-0.01em;}.cls-7{letter-spacing:-0.01em;}.cls-8{letter-spacing:-0.01em;}.cls-9{letter-spacing:-0.01em;}.cls-10{letter-spacing:-0.01em;}.cls-11{letter-spacing:0em;}.cls-12{letter-spacing:-0.03em;}.cls-13{letter-spacing:-0.01em;}.cls-14{letter-spacing:-0.01em;}.cls-15{letter-spacing:0em;}.cls-16{letter-spacing:-0.02em;}.cls-17{letter-spacing:-0.06em;}.cls-18{letter-spacing:-0.1em;}.cls-19{letter-spacing:-0.01em;}.cls-20{letter-spacing:-0.02em;}.cls-21{letter-spacing:0em;}.cls-22{letter-spacing:-0.01em;}.cls-23{letter-spacing:-0.01em;}</style></defs><rect class="cls-1" x="-0.26" y="-0.12" width="694.29" height="399.12"/><rect class="cls-2" x="26.59" y="24.89" width="0.56" height="0.33"/><path class="cls-3" d="M26.62,24.91h0"/><rect class="cls-4" x="26.62" y="24.91"/><text class="cls-5" transform="translate(25.98 47.77)">Для <tspan class="cls-6" x="63.05" y="0">к</tspan><tspan x="78.34" y="0">орректирования пов</tspan><tspan class="cls-7" x="376.87" y="0">е</tspan><tspan class="cls-8" x="393.32" y="0">д</tspan><tspan x="411.98" y="0">ения ребен</tspan><tspan class="cls-9" x="577.25" y="0">к</tspan><tspan x="592.53" y="0">а</tspan><tspan x="0" y="40.8">п</tspan><tspan class="cls-7" x="17.7" y="40.8">е</tspan><tspan x="34.15" y="40.8">да</tspan><tspan class="cls-10" x="69.41" y="40.8">г</tspan><tspan x="80.78" y="40.8">ог решила применить на</tspan><tspan class="cls-9" x="439.09" y="40.8">к</tspan><tspan x="454.37" y="40.8">азание –</tspan><tspan x="0" y="81.6">м</tspan><tspan class="cls-11" x="22.99" y="81.6">е</tspan><tspan class="cls-10" x="39.78" y="81.6">т</tspan><tspan class="cls-12" x="52.56" y="81.6">о</tspan><tspan x="69.54" y="81.6">д воспитания, напра</tspan><tspan class="cls-13" x="365.48" y="81.6">в</tspan><tspan x="381.47" y="81.6">ленный на</tspan><tspan x="0" y="122.4">порицание </tspan><tspan class="cls-14" x="167.73" y="122.4">о</tspan><tspan x="185.41" y="122.4">триц</tspan><tspan class="cls-15" x="253.22" y="122.4">а</tspan><tspan class="cls-13" x="269.41" y="122.4">т</tspan><tspan class="cls-16" x="282.28" y="122.4">е</tspan><tspan x="298.63" y="122.4">льно</tspan><tspan class="cls-10" x="368.06" y="122.4">г</tspan><tspan x="379.43" y="122.4">о поступ</tspan><tspan class="cls-9" x="501.3" y="122.4">к</tspan><tspan x="516.57" y="122.4">а.</tspan><tspan x="0" y="163.2">Воспит</tspan><tspan class="cls-15" x="100.04" y="163.2">а</tspan><tspan class="cls-13" x="116.23" y="163.2">т</tspan><tspan class="cls-16" x="129.09" y="163.2">е</tspan><tspan x="145.45" y="163.2">ль </tspan><tspan class="cls-17" x="186.45" y="163.2">Т</tspan><tspan x="200.91" y="163.2">уг</tspan><tspan class="cls-11" x="228.06" y="163.2">у</tspan><tspan x="243.31" y="163.2">сова Н.</tspan><tspan class="cls-18" x="345.64" y="163.2">Р</tspan><tspan x="359.77" y="163.2">. произнесла</tspan><tspan x="0" y="204">осуждаю</tspan><tspan class="cls-19" x="130.92" y="204">щ</tspan><tspan x="156.1" y="204">ую речь в адрес </tspan><tspan class="cls-20" x="394.17" y="204">О</tspan><tspan x="416.05" y="204">ле</tspan><tspan class="cls-21" x="450.32" y="204">г</tspan><tspan x="461.96" y="204">а пер</tspan><tspan class="cls-7" x="538.41" y="204">е</tspan><tspan x="554.86" y="204">д</tspan><tspan x="0" y="244.8">всей г</tspan><tspan class="cls-14" x="85.4" y="244.8">р</tspan><tspan x="103.01" y="244.8">уппой и </tspan><tspan class="cls-14" x="223.86" y="244.8">о</tspan><tspan x="241.54" y="244.8">тправила мальчи</tspan><tspan class="cls-9" x="489.45" y="244.8">к</tspan><tspan x="504.72" y="244.8">а</tspan><tspan class="cls-12" x="0" y="285.6">о</tspan><tspan x="16.98" y="285.6">дно</tspan><tspan class="cls-10" x="72.07" y="285.6">г</tspan><tspan x="83.44" y="285.6">о в спальню п</tspan><tspan class="cls-12" x="282.81" y="285.6">о</tspan><tspan class="cls-19" x="299.79" y="285.6">д</tspan><tspan class="cls-22" x="318.48" y="285.6">у</tspan><tspan x="333.66" y="285.6">м</tspan><tspan class="cls-15" x="356.65" y="285.6">а</tspan><tspan x="372.84" y="285.6">ть над своим</tspan><tspan x="0" y="326.4">пов</tspan><tspan class="cls-7" x="51.91" y="326.4">е</tspan><tspan class="cls-8" x="68.37" y="326.4">д</tspan><tspan x="87.03" y="326.4">ени</tspan><tspan class="cls-23" x="140.5" y="326.4">е</tspan><tspan x="157.22" y="326.4">м.</tspan></text></svg>