<svg id="Слой_1" data-name="Слой 1" xmlns="http://www.w3.org/2000/svg" viewBox="0 0 496 980"><defs><style>.cls-1{fill:#f1ba93;}.cls-1,.cls-10,.cls-11,.cls-12,.cls-13,.cls-14,.cls-15,.cls-16,.cls-17,.cls-19,.cls-2,.cls-22,.cls-23,.cls-24,.cls-25,.cls-26,.cls-27,.cls-3,.cls-4,.cls-5,.cls-6,.cls-7,.cls-8,.cls-9{fill-rule:evenodd;}.cls-2{fill:#ffcda2;}.cls-3{fill:#5a493e;}.cls-4{fill:#43352c;}.cls-5{fill:#462013;}.cls-6{fill:#f2b893;}.cls-7{fill:#fcd4b1;}.cls-8{fill:#fed6b2;}.cls-9{fill:#f3b993;}.cls-10{fill:#ef626c;}.cls-11{fill:#df3e4a;}.cls-12{fill:#f47b84;}.cls-13{fill:#401203;}.cls-14{fill:#3d0f00;}.cls-15{fill:#663a2f;}.cls-16{fill:#f3b896;}.cls-17{fill:#dbdcd7;}.cls-18{fill:#5a3427;}.cls-19{fill:#804f41;}.cls-20{fill:#1c0001;}.cls-21{fill:#f5f5f5;}.cls-22{fill:#0f0506;}.cls-23{fill:#451f12;}.cls-24{fill:#fbe9d9;}.cls-25{fill:#b3aaa3;}.cls-26{fill:#c2bab0;}.cls-27{fill:#9c9a99;}</style></defs><path class="cls-1" d="M126.11,854c.31-9.26.13-39.23-.42-55.1-.26-7.8,3.21-13,4.11-16.69,2.75-11.16,8.45-23.73,12.32-27.37A43.88,43.88,0,0,1,156,745.49c5.86-2.38,13.49-5.73,23.17-.86s14.21,9,18.57,19,6.39,14.42,7.73,20.91-2.93,77.63-17.69,154.84-36.48,186.29-38.34,194.89-7.58,16,1.66,31.73,19.7,33.29,20.69,39.25,1.25,10.42-12.92,13.43-35.91,9.55-41.5,4.47-20,0-12.5-30.47c8.47-34.58,6.22-117.94,6.79-133.27s8.55-139.53,9.46-145.6S125.61,869.1,126.11,854Z"/><path class="cls-2" d="M52.3,1162.83c.1,12.17-8.7,42.24-8.32,53.56s8.7,26.41,11.91,29.14,7.12,2.93,23.7-.45,31.8-7.54,35.17-11.22,6.21-6.68-2.86-20.1-24.83-33.5-24.12-41.62,8-62.9,9.3-72.73,13.85-108.36,15.62-122.24,14.37-124.59,14.57-130.36,5.78-49.28-.76-59.38-17.29-23.17-25.24-25.6-30.9-.76-39.06,5.56-15.08,20.1-16.62,33.77-6.9,59.21-7.22,84.35,4.65,123.16,5.32,136.77,4.45,90.49,4.8,97.58S52.19,1150.65,52.3,1162.83Z"/><path class="cls-3" d="M51.07,562.41S8.2,634.91,11.45,677.65,37.2,836.41,36.88,888.06c-.26,43.61,151.13,21,159.26,15.13s24,5.54,37.37-142.93C236.43,728,237,620.51,237,620.51L231.61,557Z"/><path class="cls-4" d="M174.89,558.67s-7.07,69.93-2.7,72.7S119,909.26,129.56,912.71s65.1-5.75,74.49-13.86c9.71-8.39,25.5-58.77,30-155.17.17-3.77,3.24-118.53,2-121.76s-7.49-62.2-9.15-67.73S174.89,558.67,174.89,558.67Z"/><path class="cls-5" d="M75.83,244c-2.25.52-6.93.37-7.91.5s1.76,1.94,5.79,3.8,12.59,6.3,17.56,6.08,10.4-1.19,15-6.83,5.79-10.19,5.87-8.71,1.64,12.7-1.26,16.79-10.84,9.45-10,10.15,9.92-.47,15.27-1S134.66,261.37,137,261s73.62-1.48,77.12-.8,16.51,1.19,21.55.95,21.27-1.41,20.42-1.82-8-4.19-9.93-7.6-3.9-5.41-3.76-12.68,1.26-2.38,3.86.08,7.34,6.8,11.14,7.88,7.29.09,10.56-.89,15.77-7.67,14.73-7.87-6,1.38-10,.31-9.34-2.35-11.89-5.63-7-6.4-7-9.11,14.6-33,17.91-34.72,6.08-7.3,7.81-11.1,1.69-8.66,2.48-14.7.38-15.76.47-18.19-2.47-23.09-2.53-21.19,1.28,21.07,1.25,25.55-2.33,17-3.89,21.32-4.61,12-4.49,9.48,4.11-11,3.2-14.86S271,155.09,268.27,153s-10.9-2.35-13.92-3.46-11.43-8.55-12.93-9.11-7-1.67-11.24-4.12-6.89-4.73-11-9.51-11.29-13.87-12.56-17S202,98.26,202,98.26s-1.64-1.23-2.83,5.18-3.93,13.78-1.81,20.88,8.46,18.33,7.71,19-4.55-6.09-6.67-8.06-6.13-8.35-10.35-14.6-9.51-15-10.81-18.51-4.06-18.74-5.44-17.85-15.49,18.34-17.73,21S141,120.71,138.46,124.6,126,140.23,124.38,144.4s-2.67,16-3.65,21.83-.51,6-1,5.72-3.4-4.62-5.7-11.59a54.46,54.46,0,0,1-3-14.52c-.37-4-3.08-14.61-3.1-15.55s-1.25,11.56-1.25,11.56-2.46-.53-5.7,1.66-1.1,44.38-.91,48.28,1.92,25.07,2,28.9-3,8.85-4.75,12.21-4.68,9.55-9.15,10.51-6.47,2-7.72,1.66S78.07,243.43,75.83,244Z"/><path class="cls-2" d="M144.7,241.82s-.38,14.72-.45,18.79-.26,11.72-2,16.81-2.66,7.11-10.48,11.32-9.59,4.27-16,5.59-3,14.45,4.21,20.36,45.45,15.91,59.15,14.08,40.73-10.52,42.85-16.93a72.68,72.68,0,0,0,2.69-15s-12.21-3.44-16-4.82-8.78-3.31-12.88-6.45-7.85-5.85-7.51-11.4,3.44-17.77,3.44-17.77Z"/><path class="cls-6" d="M154.33,261.31s6.68,6.42,13.7,9.35,9.54,3.64,12.92,3.91a39.56,39.56,0,0,0,7.23-.23,49.79,49.79,0,0,1,.9-7.27c.73-3.32,2.14-9.82,2.14-9.82L144.91,241.7l-.39,11.06s5.4,5.33,6.91,6.42Z"/><path class="cls-7" d="M126,301.23s16.57-.09,21.53.36,23.89,3.68,25.08,4.27,5,2.77,7.48,2.18,3.4-1.83,6-3.91,8.87-3.1,13.49-3.46,12.2-.69,13.4-.53,2.36.23.18,4-5.54,10.61-12,13.17-23.19,4.53-31,3.93-18.73-3.84-25.83-6.21-19.81-12.18-19.81-12.18Z"/><path class="cls-6" d="M185.38,295s.6,4,.09,6-2,4.48-.3,4.27,4.13-2.77,8-3.2l7.5-.82c5.21-.58,10.87-1,11.73-.82s.86-.69.16-.69l-13.32.08c-2.22,0-8.53,1-9.68.06a8.57,8.57,0,0,1-2.78-4.08c-.62-1.82-1.75-6.63-2.14-6.31S185.38,295,185.38,295Z"/><path class="cls-6" d="M167.25,294.17s3.3,6.74,4,8.2,2.8,4.82,2.17,5.27-4.37-2.13-7.23-2.94a57.27,57.27,0,0,0-10.79-1.94c-4.34-.38-15.83-1.1-18.11-1.13s-7.43-.39-6.13-.77,10.45-.09,15,0,15.25.35,16.29-.75.41-3.26-.19-6.23-1.91-9.4-2.34-11.49-1.23-5.85-.71-5.38,5.42,11.33,6,12.82S167.25,294.17,167.25,294.17Z"/><path class="cls-6" d="M105.14,190.39s2.17.94,3.75,1.54,4.58,1.63,5.43,1.42-3-22.07-3.24-23.15-1.84-6.24-2.22-8a69.05,69.05,0,0,1-1.15-7.36c-.12-1.68,0-7.69-.56-8l-4.28-2.39c-.48-.27-2.2-1.13-2.56-.43s-7,11.73-6.71,13.2.25,13.23,1.47,14.56S105.14,190.39,105.14,190.39Z"/><path class="cls-8" d="M147,119.16c1.69-2.31,8.14-9.68,10-12.45s6.26-8.11,8-10.68,5.25-7.88,5.62-7.54.78,8.19,1.34,10.83,2.32,10.85,3.53,13.51,5.16,9.79,8.11,13,10.78,11.1,13,13.15,11.6,10,12.29,10.31-.08-1.26-.7-2.51-5-10.29-6.32-14.11-3.17-8.11-3.55-12,.35-11.25.89-14.59,1.24-7.25,1.4-4.47a92.45,92.45,0,0,0,3.25,14.91c.85,2,3.61,8.63,5.71,11.41s5.84,7.16,9.26,9.5a65.91,65.91,0,0,0,10.49,5.7c3.48,1.54,12,4.81,15.45,6s10.73,4.13,13.54,5.49,7.7,4.51,8.48,5.74a20.24,20.24,0,0,1,3.66,9.77c.49,5.27-.69,15-2.24,20.42s-3.89,15.48-5.19,18.35-5.07,9.8-6.88,13-7.89,11.79-11.58,15-15.44,11.56-17.95,13.34-9.21,7.14-12.08,8.59-12.72,7-13.79,7-4.45,1.57-8.83.75a58.43,58.43,0,0,1-19.38-6.83c-8.36-4.69-18.27-10.82-24-14.57s-12-7.77-15.66-11.29a48.14,48.14,0,0,1-9.07-11.84A100,100,0,0,1,117.59,207c-1.79-5.79-1.7-5.51-2.48-8s-2.36-13.46-3-19.35-1-9.74-1-9.74a21.29,21.29,0,0,0,2,4.1,40,40,0,0,0,6,8l1.9,1.69a45.45,45.45,0,0,1,.66-5.18c.68-4.29,1.72-9.37,2.84-13.79a133.69,133.69,0,0,1,6.09-17.47L136,136a121.94,121.94,0,0,1,9.11-14.34A22.11,22.11,0,0,0,147,119.16Z"/><path class="cls-9" d="M188.87,236.49c.75,1.1,3.07,3.88,6.12,4s7.44,0,7.89-1.65S188.11,235.39,188.87,236.49Z"/><path class="cls-10" d="M180.53,225.42a10.64,10.64,0,0,1,3.28,3.77c.76,1.81,3,5.85,4.88,7.23a15.9,15.9,0,0,0,6.87,2.64c2.36.33,4.48.67,6.44-.27s4.67-3.73,5.32-5.86,1.55-3.1,1-3.24a6.39,6.39,0,0,0-3.56.34,3.76,3.76,0,0,1-2.72.26l-3.35-.5a32.18,32.18,0,0,1-4.44-1.45,33.08,33.08,0,0,0-4.11-.35c-2.1-.21-5-.08-5.8-.6a5.88,5.88,0,0,1-2.09-2.3c-.2-.65-1.21-1.31-1.69-1.55s-1.09.16-.78.66S179.82,224.84,180.53,225.42Z"/><path class="cls-10" d="M200.65,225.19c-.54-.09-2.41-1.47-4.56-1.3s-6.32,1.37-7.72,1.05a37.51,37.51,0,0,0-6.32-.5c-.45.11-.57.84.26,1.68s3.06,2.68,8.08,3.71,12.75,2.47,14.87,1.59a28.29,28.29,0,0,0,4.63-2.47c.87-.58,2.78-1.76,2.49-2.15s-.75.08-1.66,0a15.49,15.49,0,0,1-3.78-.59c-.9-.37-3.21-1.55-4.55-1.34S201.18,225.29,200.65,225.19Z"/><path class="cls-11" d="M191.83,227c-1-.21-3,.15-.43,2.35s11.13,4.95,12.28,3.46,2-3.74.62-4.35S192.83,227.2,191.83,227Z"/><path class="cls-12" d="M184.75,229a10.39,10.39,0,0,0,3.36,5.62c2.15,1.64,4.77,3.64,7.87,4a14,14,0,0,0,7.58-1.58,13.38,13.38,0,0,0,3.13-4.47c.23-1,.73-2.17-.17-2.26a23.28,23.28,0,0,0-3.13.3c-1,.06-2.52.84-3.25.77s-4-1.37-4.86-1.61a14.71,14.71,0,0,0-4.88-1C188,228.72,184.65,227.9,184.75,229Z"/><path class="cls-12" d="M182.66,225.68c.28.64,3.16,2,6.15,2.18s4.7.17,5.82.68a19.83,19.83,0,0,0,6,1.48c1.55,0,3.34.51,4-.09s2.77-.38,3.47-.93,1.66-1.37.81-1.57-3.7-1.37-4.3-1.47-1.1.2-2.75.54-3.43-1.46-4.55-1.62a17.62,17.62,0,0,0-5.3.59c-1.09.4-3.78.16-5.22,0S182.22,224.69,182.66,225.68Z"/><path class="cls-8" d="M107.09,146.86s-3.37-3.89-6.42-3.5a9.58,9.58,0,0,0-8,6.45c-1.65,4.35-2.7,13.94-2.23,18s1.48,10,3.9,13.25,9.05,9.84,12.32,9.67,4.6-.1,4.87-3.82a41.42,41.42,0,0,0-1-9.35,16.14,16.14,0,0,1-5.65-.44,6.37,6.37,0,0,1-4.28-3.92c-1-2.29-1.77-4.5-1.38-4.61s2.39,3.41,3.82,4.2,2.8,1.1,2.63.66-2.89-.67-3-2.86-.08-2.41,1.21-4a13,13,0,0,0,2.9-4.92c.41-1.69.8-3.93-.36-5.15s-3-2.93-5.13-1.4a9.9,9.9,0,0,0-4.37,6c-.68,2.74-.67,7.26-1,7.35s-.68-2.34-.8-4.2,0-6.91,1-8.78,2.53-3.37,3.91-3.47,4,.22,5,1.07,2.06,1.72,2.08,1.25a10.85,10.85,0,0,0-1.68-5.41c-1.47-2.09-4.91-4.85-4.44-4.83a7.26,7.26,0,0,1,2.76,1C105,145.76,107.09,146.86,107.09,146.86Z"/><path class="cls-13" d="M187.74,139.92c-3.29-2.8-10.1-8.35-15.33-10.6s-9.51-4.49-16.78-5.36-14.93-.76-14.28-.45,12.35,1.73,15.42,2.52,12.17,2.89,16.12,6.29,11.4,9.81,12.76,11,5.18,4,5.88,3.16.31-1.9-1-3.41S191,142.72,187.74,139.92Z"/><path class="cls-14" d="M231.48,142.84a27,27,0,0,0-8.73,3.95c-2.51,1.92-4.55,4.55-3.68,5.34s3.74-.49,5.67-1.94a53.92,53.92,0,0,1,7.44-4.82c1.54-.62,6.26-2.06,9.89-1.54s13.73,2.56,14.85,2.11-6.92-2.53-10.29-3.08-9.21-1.05-11.76-.67A15.7,15.7,0,0,0,231.48,142.84Z"/><path class="cls-15" d="M74.63,244.16a24.61,24.61,0,0,0,6.85-1.63c2.64-1.26,6.74-3.24,7.14-7.49s.93-5.83-1.39-10.3S81,215.34,78,211.56s-8-10.79-10.31-17.14-6-18.65-6.53-27.43-.78-17.23-.82-21.36.61-16.33.75-20.53,2.6-23.91,3-26.2,3.77-15.16,6.13-20.55A260.07,260.07,0,0,1,83.37,54.1c2.88-4.35,8.9-13.05,14.08-17.11s11.73-8.53,16.08-10,5.62-1.79,8.46-1.91,5,.76,5.55.5,2.63-3.35,5.47-5.83,11.12-8.08,15.25-9.47S161.14,6.64,167,7.14s26.93,3.61,35.37,6.4,24.86,7.75,37.88,17.9S267.7,57,273,67.4s14.09,31,16.09,43,4.15,30.82,3.46,37.89-1.83,21-5.19,30-9.48,20.62-11.88,23.86-8,10.5-9.1,14.32-3,9.91-.21,13.22,3.92,4.78,10.44,5.63,10.89-.14,10.34.28-6,4.58-9,5-9.18,1.56-14.33-2.31-9.78-6.63-10.21-12.24a35.09,35.09,0,0,0,3.14-4.86c2.18-4.08,6.2-10.81,7.91-16.72,2.25-7.75,4.52-16.7,4.52-16.7a57.23,57.23,0,0,0,4.4-4.07c2.24-2.32,5.68-8,6.55-11.81s2.22-23.08,2.18-26.56-1.08-.42-.94,1.2a139.79,139.79,0,0,1-1.3,17c-.74,4.24-3,12.07-4.62,14.35s-2.79,3.8-3,2.52,2.39-5.89,1.44-11.08-2.61-12-8.67-15a142.53,142.53,0,0,0-18.06-7.47c-5.7-1.86-15-5.38-19.08-7.8s-9.27-5.39-12.38-8.54S206.5,118.22,205,115s-4.57-13.92-4.53-15-1.12,5.34-1.74,8.35-.85,12.53.06,15.34,6.68,18.83,6.47,19.8-7.35-5.52-9.55-8-10.58-11.58-13.26-16.27a132,132,0,0,1-7.78-17.14c-1.23-3.62-2.87-14.09-3.65-14.16S163.73,96,162.61,97,148.38,112.42,146,115.3s-12.39,17.1-14.24,20.84-8.32,17.68-9.25,22.47-1.93,16.42-2.6,16.63-4.72-4.09-6.49-8.32a103.73,103.73,0,0,1-4.62-16.23,6,6,0,0,0-1.91-4.17c-1.12-1.1-6.18,44.45-6,49.91s3.25,26.44.8,32-4.74,11.33-6.5,12.87-6.21,5.1-8.29,5.55a12.76,12.76,0,0,1-6.6-.08A28.68,28.68,0,0,1,74.63,244.16Z"/><path class="cls-6" d="M209.36,184.32c-.11,1.26,1.47,7,2.5,9.65s1.53,5,.59,6a8.59,8.59,0,0,1-7.72,3.29c-4.49-.47-11.72-2.11-11.39-1.19s-.13,1.66,6.66,3.46,10.83,1.08,13.59-2.76,2.13-7.14,1-9.31-2.3-4.5-3.24-6.24S209.47,183.06,209.36,184.32Z"/><path class="cls-16" d="M222.79,172.61c-.26-.07-.67-1,.3-4.21s2.95-8.14,4.91-10.29,4.78-4.73,7-5.44,6-1.86,9.42-1.25,8.92,2.85,10.9,5.19,4.76,6.25,5.1,7.88.93,2.95,1.34,4.62S223.06,172.69,222.79,172.61Z"/><path class="cls-17" d="M222,174.73a17.47,17.47,0,0,0,5.43,5.19c3.24,2.05,8.14,3.75,11.46,3.75s11-2.37,12.88-3.45,5.08-3.13,5.17-5.3-1.71-6.76-4.07-8.91-6.6-5.88-13.13-5.46a16.85,16.85,0,0,0-12.38,6.63C225.45,169.63,221.71,174.16,222,174.73Z"/><circle class="cls-18" cx="239.41" cy="169.31" r="14.32" transform="translate(26.15 370.56) rotate(-78.61)"/><path class="cls-19" d="M230.35,172s-3.31,1-3.29,1.52a9.39,9.39,0,0,0,4.22,5.49c3,1.7,7.29,3,10.37,2.17s5.9-2.42,7.21-4.25,2.46-2.48,2.15-3-2.68-2.67-3-2.34S230.35,172,230.35,172Z"/><circle class="cls-20" cx="240.08" cy="168.63" r="9.59" transform="translate(27.35 370.67) rotate(-78.61)"/><ellipse class="cls-21" cx="231.16" cy="166.71" rx="3.18" ry="3.04" transform="translate(26.09 364.64) rotate(-79.78)"/><path class="cls-22" d="M225.45,164.17c-.61,1.35-3.75,10.42-3.06,10.71s2.55-5.6,6.47-9,6.74-5.94,12.43-5,9.55,2,12.07,5.92,3.45,6.68,3.47,7.48a5.69,5.69,0,0,1-1.3,2.93c-.73,1-2.45,2.3-2,2.65s8.12-3,9.3-3.56a21.7,21.7,0,0,0,5.08-3.74c.67-.95,2-2.22,1.33-2.32s-2.24,1.91-4.13,2-2.51.29-2.07-.18,2.51-2.16,3.25-3.79,1.85-4.81,1.22-4.68-1.48,2-3,3-3.6,2.41-4.2,1.92-2.85-5.89-3.91-7.32-3.26-4.69-6.27-5.83a23.71,23.71,0,0,0-11.27-1.81,12,12,0,0,0-7.84,3.35A25.24,25.24,0,0,0,225.45,164.17Z"/><path class="cls-16" d="M186.32,170.07c.27,0,.92-.74.93-4.12s-.49-8.64-1.75-11.27-3.22-5.9-5.1-7.2-5.24-3.52-8.66-3.91-9.37.17-11.94,1.84-6.35,4.62-7.15,6.08-1.74,2.56-2.61,4S186,170.07,186.32,170.07Z"/><path class="cls-17" d="M186.48,172.33a17.67,17.67,0,0,1-6.69,3.42c-3.7,1-8.88,1.24-12,.29s-9.83-5.42-11.35-7-4-4.46-3.43-6.57,3.58-6,6.46-7.36,8-3.73,14.15-1.46a16.82,16.82,0,0,1,9.94,9.91C184.64,166.45,186.91,171.87,186.48,172.33Z"/><circle class="cls-18" cx="171.35" cy="162.14" r="14.32" transform="translate(-11.1 311.67) rotate(-82.76)"/><path class="cls-19" d="M179.26,167.32s2.89,1.87,2.7,2.4a9.29,9.29,0,0,1-5.61,4.05c-3.33.77-7.84.77-10.55-.9s-5-4-5.69-6.14-1.65-3.08-1.21-3.46,3.34-1.8,3.51-1.4S179.26,167.32,179.26,167.32Z"/><circle class="cls-20" cx="173.92" cy="161.33" r="9.59" transform="translate(-8.06 313.52) rotate(-82.76)"/><ellipse class="cls-21" cx="165.93" cy="158.47" rx="3.18" ry="3.04" transform="translate(-10.26 305.44) rotate(-83.52)"/><path class="cls-22" d="M186.2,161.23c.2,1.46.6,11.05-.14,11.13s-.84-6.09-3.61-10.5-4.75-7.63-10.48-8.36-9.72-.8-13.26,2.2-5.22,5.41-5.46,6.17a5.52,5.52,0,0,0,.4,3.18c.41,1.14,1.69,2.9,1.13,3.11s-6.92-5.18-7.89-6.08a22.8,22.8,0,0,1-3.79-5c-.36-1.11-1.27-2.71-.6-2.61s1.6,2.47,3.38,3.11,2.31,1,2,.42-1.78-2.79-2-4.56-.39-5.14.17-4.84.85,2.34,2,3.75,2.76,3.34,3.47,3,4.42-4.82,5.85-5.88,4.47-3.56,7.68-3.79a23.78,23.78,0,0,1,11.32,1.5,12,12,0,0,1,6.55,5.47A25.34,25.34,0,0,1,186.2,161.23Z"/><path class="cls-23" d="M132.92,35.68a22.49,22.49,0,0,0-8,1.24c-2.54,1-7.2,3.47-8.21,4.49s-1.79-.18,2.14-2.87,8.43-5,10.48-5.34,3.23-.11,4.44-1.29,3.87-3.88,6.27-5a21.16,21.16,0,0,1,6.87-2.12c1.58,0,3.73.2,2.32.78s-6.57,2.09-9.74,4.6a63,63,0,0,0-5.6,4.87C133.44,35.5,133.19,35.73,132.92,35.68Z"/><path class="cls-23" d="M131.76,32.05a16.44,16.44,0,0,0-7.42-1c-3.67.5-10.65,3.85-10.53,3.27s4-3.25,7-4.16,9.52-.34,10-.95,2.07-4,3.38-5.55a30.57,30.57,0,0,1,6.76-5.38c2.66-1.55,7.54-3.93,6.93-3.28S139.59,22.63,138,25.4s-3.72,6.46-4.46,6.76A3,3,0,0,1,131.76,32.05Z"/><path class="cls-1" d="M386.24,313.74c2.27-3,14.58-24.87,16.49-27.74s5.78-11.08,9-19.2,5.52-13.39,11.58-20.2,12.07-10.93,14-13.68,16.61-21,24.17-26,21.9-13.68,22.77-12.41,3.25,5.49,1.74,8.6-14.94,13.24-17.58,16.44-8.63,11.34-7.35,11,12.7-5,13.19-3.41a15.1,15.1,0,0,1,.3,7.47l-1,4a5.84,5.84,0,0,1,1.71,5.44c-.55,3.68-.07,6.91-1.1,7.37s2.71-2.42,2.68.59-1.42,7.16-2.06,9.16.91,1.95,1.43,4.19,1.13,6.51-.85,9.13-5.57,8.17-9.48,10.94-9.17,5.3-9.76,4.84.61-1.59-3,.84-10,7.82-15.36,9-5.38.51-8.69,7.42-6.64,16.4-8.43,20-7.54,15.1-8.49,17-3.46,8.75-5.18,8S384,316.73,386.24,313.74Z"/><path class="cls-2" d="M484.78,197.21c0-.61,0-2.51-1.43-1.86s-11.42,7.47-13.53,9.09-8.88,7.72-10.38,9.09S449,224.88,447.67,226.29s-5.34,7-6.81,8.34-11.74,11-13.78,13.37-8.47,10.77-11.05,14.75a139.93,139.93,0,0,0-7.13,13.36c-1,2.24-2.41,7.76-3.21,9s-7.24,13.53-8.26,15.74-9.22,13.52-8.89,14S402.8,343.71,404.48,347s2,6.27,2.77,5.36-.57-7.62.47-9.45,16.24-27.73,17.22-30.52,4.18-10.4,3.68-10.56,2.86-1.73,4.77-2.4a87.26,87.26,0,0,0,8.85-3.82l7.95-4.1c1.79-.93,5.42-5,5.43-5.63s.75-2.88,0-2.92-3.13,2-3.9,1.38-1.89-3.13-1.51-5.86.9-4.63-.37-4.79-1.14-1.66-2.15-2.2-2.33,2-3.56,4.1-7,8.19-9.41,10a35.27,35.27,0,0,1-4.52,3s5.24-6,6.63-7.66a78.39,78.39,0,0,0,6.19-9,71.31,71.31,0,0,0,4.22-10.59c.46-1.95,2-8.46,2.18-9.23s2.91-2,4-2.35,6.34-2.91,7.94-3.79,6.22-3.46,7.45-5.54a23.83,23.83,0,0,0,2.89-8.08c.15-2.18,1.09-3-2.42-1.73l-13.8,5.17c-2,.73-10,3.54-12.46,5.42s-5.92,7.53-7.43,9.84a73.15,73.15,0,0,1-6.78,8l-1.24,1.05s3.34-6.2,5.06-8.78,4.64-8.12,6.42-9.64,7.13-5.34,10.61-6.74,6.61-1.78,7.14-2.43,4.93-8.94,6.86-10.81,8.11-8.93,11.48-11,7.29-5.19,8.43-7.87A14.65,14.65,0,0,0,484.78,197.21Z"/><path class="cls-2" d="M455.79,250.05c-1.36.53-4.57,1.22-4.6,2.33s-.78,5.63-.1,5.12,2.81-4.37,3.84-4.81S457.15,249.52,455.79,250.05Z"/><path class="cls-2" d="M455.6,254.5c-1,.48-4.52,3.67-5,4.65a33.18,33.18,0,0,0-1.6,6.11c-.22,1.79.21,5,1.77,5.51s5.39-1.32,7.51-3.37a98.06,98.06,0,0,0,8.15-9.35,52.79,52.79,0,0,0,4.89-8.63,27.26,27.26,0,0,0,1.37-7.13c0-.88-.16-2.31-1-1.29s-2.11,3.54-5.2,4.84-6.55,1.91-7,2.54a18.73,18.73,0,0,0-1.58,4.86c-.2,1.25-.07,2.91-.4,2.5S456.72,254,455.6,254.5Z"/><path class="cls-2" d="M453.1,272.54c-1.05.9-1.76,1.54-1.55,4s1.19,6.54,2.91,5.58,11.3-11.1,13.07-13.49a106.42,106.42,0,0,0,6.7-11.6,46.77,46.77,0,0,0,2-6.53c.06-.64-.77-3.5-1.71-2.19s-1.63,4-2.78,5.81a107.41,107.41,0,0,1-7.24,8.88c-1.18,1.2-6,5.48-7.14,6.46S454,271.8,453.1,272.54Z"/><path class="cls-2" d="M473.47,263.06c-.83.91-3.77,6.37-4.42,7.09s-5.7,6.07-7.17,7.28-3.57,2.72-4.29,3.95-1.11,4.36-.53,5.56,3.68.2,5.6-.85a31.3,31.3,0,0,0,7.94-7.54c1.68-2.59,3.58-5.94,4-7.95a16.59,16.59,0,0,0,.21-5.71C474.59,263.53,474.4,262,473.47,263.06Z"/><path class="cls-8" d="M477.17,199.31c-1,.82-9.74,7.12-10.59,7.86s-9,8.13-10.16,9.31-6.05,6.49-7.18,7.8-5.1,6.16-6.18,7.57-1.55,2.56-2.09,2.73-4.58,4.08-6,5.34-7.85,8.15-9.42,9.77-7.08,9-8,10.55-3.82,6.56-4.44,7.6-3.3,6.46-3.8,7.6-3,4.76-3.09,6,.24,2.43-.16,3.06-4,7.62-4.7,9.15-5,9.15-5.56,10.15l-4,6.81c-.38.64-3.41,3.9-3.4,4.48s3.76,8.7,4.25,8.41,4.12-9.17,4.6-10.36,4.65-10.26,5.14-11.44,3.7-7.2,4.74-8.84a86,86,0,0,1,5.92-7.44c1.14-1.19,3.11-1.92,3.12-2.6s.07-3.85.09-5a33.15,33.15,0,0,1,1.48-6.95,81.3,81.3,0,0,1,4.62-10c1-1.38,5-8,5.84-8.88s6.12-8.24,7.34-9.64L441.9,235c.86-1,5.59-5.91,7.22-7.34s9.37-8.92,11-10.34l11-9.87c1.12-1,5.92-5.84,7.92-7.09s5.61-2.49,5.83-3.14,0-2.71-.65-2.47S477.86,198.73,477.17,199.31Z"/><path class="cls-8" d="M441.15,243.16a45,45,0,0,0-4.76,7c-1.52,3.08-2.74,4.2-2.25,4.58s5.12-3.87,7.47-6.09,4.46-4.63,6.24-5.58,8.28-3.39,9.25-3.78,2.64-1.21,2.33-.43-.82,2.33.06,2.12a60.93,60.93,0,0,0,7.7-4.43c.89-.73,1.87-2,2.06-1.16s.33,2.55.64,2.66,1.06-1.81,1.2-2.77.6-3.93.67-4.39,0-1.44-1.25-.91-8.39,3.76-9.78,4.35-9,2.65-10.75,3.31a63.34,63.34,0,0,0-7.29,3.92A6.63,6.63,0,0,0,441.15,243.16Z"/><path class="cls-8" d="M468,245.38c-.52.31-4.42,1.75-4.81,2.26s-4,11.28-4.48,12.25a20.74,20.74,0,0,0-1.21,3.55c-.18.77.16,3.89.71,3.43s6.78-7.18,8.31-9.15a61.16,61.16,0,0,0,5.06-9.59,20.42,20.42,0,0,0,.93-6.31c-.22-.64.34-1.22-1,.34A16,16,0,0,1,468,245.38Z"/><path class="cls-8" d="M472.71,253.42a58.27,58.27,0,0,1-5.91,7.92c-2.16,2.16-5,5-5.63,6.32s-2.64,5.5-2.4,6.19,1.21,2.2,1.74,1.54,2.46-2.77,3.85-4.27a47.85,47.85,0,0,0,5.54-7.26,75.24,75.24,0,0,0,4.83-9.44c.87-2.27,1.84-3.51,1.51-4s-.93-2.26-1.38-1.88-.93,2.63-1.24,3.15S473,252.87,472.71,253.42Z"/><path class="cls-8" d="M471.94,266.13s-1.69,2.57-2.39,3.6a25.35,25.35,0,0,1-3.05,3.58c-.74.63-1.91,1.52-2.12,2.51s-.17,3.51-.46,4.55-.36,4.15.27,4,3.41-2.95,4.7-4.6,3.67-5,4.31-6.83a14.38,14.38,0,0,0,1.11-5c0-2-.18-4.56-.58-4.51S471.94,266.13,471.94,266.13Z"/><path class="cls-24" d="M457.27,262.7c-.8,0-3.1,0-4,.75a6.18,6.18,0,0,0-1.63,3.81c0,1.1-.32,3,0,3.24s6-2.44,6.32-3.47S458.41,262.76,457.27,262.7Z"/><path class="cls-24" d="M458.43,272.93c-.91.28-5.15,1.77-5.22,3.36a5.92,5.92,0,0,0,.76,3.63c.53.67,1.49.13,2.64-.94s4.07-2.66,3.58-3.32S459.35,272.66,458.43,272.93Z"/><path class="cls-24" d="M463.64,279.94c-.76.31-2.64.32-3.43,1.38a8,8,0,0,0-1.64,3.57c0,1,.28,2.08.74,2s4.49-1.93,4.73-2.42S464.4,279.64,463.64,279.94Z"/><path class="cls-24" d="M470.61,230.27a2.91,2.91,0,0,1-.72,2.88,11.28,11.28,0,0,1-4.63,3.53c-2.57.92-5,2.9-5.28,1s-.68-2.6.31-3.18,10.32-4.23,10.32-4.23"/><path class="cls-25" d="M122.4,292.78s16.44,21.15,35.75,23.5,43.09-1.46,47.27-8.25,9.38-14.2,9.38-15.25,18.45,4.71,22.79,6.55,15.87,5.06,27.79,11.76c18.34,10.29,23.77,23.33,27.8,28.54,24.07,31.11,26.63,39.89,30,43.88,7.55,8.87,12.48,17.63,17.68,13.21,9.5-8.1,22.36-41.77,24.56-45.87,12.62-23.57,20.4-41.9,25-46.69,9.24-9.61,33.6.57,34.31,12.65,2.31,38.82-61,137.3-87.14,132.16-15.56-3.07-43.9-28.24-58.87-49.36-20.14-28.4-34.08-21.95-36.89-32s-14.4-61.13-16.28-58.41-21.09,27.77-52.2,24.43-55.34-6.89-58.89-16.71-12.85-21.27-7.89-21.81S122.4,292.78,122.4,292.78Z"/><path class="cls-26" d="M115,294s-5.35-.75-16,1.31S82.84,300,80.35,301.58s-27.1,34.05-31.74,42c-14.51,24.81-15.71,50.59-20,92.56-.32,3.1,8.29,23.13,10.58,32.31,4.77,19.15,6.54-36.29,6.54-36.29s-12.17-35,1.94-41.46c19.45-8.84,53.58-20.15,52.59-18.39-8,14.21-5.21,87.63-6.86,94.84C90.35,480.55,34.93,590.6,34.93,590.6s20.56,14.61,58.64,17.7c24.27,2,86.64-2.54,86.64-2.54l4.64-43.26,21.55,38.34,29.65-16.38s1.59-134.27.81-136.88,21.28-2.73,31.32-30.76c2.3-6.45,6-20,1.33-34.39s-13.58-31.32-17.75-38.37-11.93-43.36-14.28-44.67c-1.2-.67-13.84-4.79-14.15-4.63-4.16,2.11-5.5,13.54-9.64,18.17-9.72,10.85-18.84,15.25-43.9,13.95S137.48,322.8,127,312.1,115,294,115,294Z"/><path class="cls-25" d="M237,446.72l-1.15,137.53L211.7,597.36Z"/><path class="cls-25" d="M113.47,347.07l-13.14,25.57s-3.39,10.51-3.42,13,3.21,2,3.21,2Z"/><path class="cls-27" d="M363.88,359.59s-7.23,16.15-12.86,24.3-9.38,16.74-10.44,15.1,11.61-22.36,16-29.18A102.59,102.59,0,0,1,363.88,359.59Z"/><path class="cls-1" d="M219.43,606.09c.53-1.08,5.11-8.47,6.32-15.87s9.09-.64,7.71,2.34-7,13-9.48,14.41S218.9,607.18,219.43,606.09Z"/><path class="cls-1" d="M230.8,607c1.43-.71,9.77-8.1,11.86-10.66s5.25-8.65,4.39-9.64-3.88-2.15-5.23-1.25a56,56,0,0,0-7.81,7.81c-1,1.58-7.64,11.92-8.49,12.83S229.37,607.71,230.8,607Z"/><path class="cls-1" d="M219.71,605.12s3.2-8,3.57-10.89-.06-5.19-2.62-4-3.24,1.11-5,3.67-3,7.74-3.19,8.78S219.71,605.12,219.71,605.12Z"/><path class="cls-2" d="M215.71,590.26s7,2.7,11.23,3.14,8.12.26,10-1.43,5.32-5.69,2.79-8.42-10.55-4.12-13.3-4.89-14.92-2.76-16.5-3.13-12.37-3.78-15.14-4.7S181.29,567,178.76,567a60.29,60.29,0,0,0-9.48.67c-2.53.53-3.8,1.37-4.4,1.21s-17.14-6.35-18.89-7-19-7.8-19.31-7.36S118,586.13,118,586.13s28.06,6.79,31.36,7.54,4.7.75,6.16,2,12,9.8,14.75,11.49,17.73,10.09,20.05,11.48a16.15,16.15,0,0,0,7.29,2.44l14.26.11c1.44,0,13.87.55,15.58.6s4.63.94,8.69-2.45,11.83-11.15,14.65-16,5.6-9.54,4.59-10.39-4.4-2.32-6.82-1-7.37,5.94-10.85,9.24-5.22,6.14-6.19,5.87-10.18-1.64-13.08-3-9.39-5.28-10.5-7.08-4.33-6.06-3.69-6.66a11.93,11.93,0,0,1,6-1.6A45.25,45.25,0,0,1,215.71,590.26Z"/><path class="cls-1" d="M231.63,621.4s-6.9-1.43-11-2.18-18.63-3.48-17.93-2.58,15.4,3.53,17,3.86,9.26,1.18,10.34,1.23S232.23,621.8,231.63,621.4Z"/><path class="cls-1" d="M245.67,609.18s-3.1,1.79-6.81,4.32-8.05,6.85-9,6.8-.66-.65.74-1.71,10.92-8.05,12.26-8.8,3.7-1.58,3.48-1.19A1.49,1.49,0,0,1,245.67,609.18Z"/><path class="cls-24" d="M239.85,583.89c-.79-.66-6.71-2.69-7.73-2.19a3.64,3.64,0,0,0-1.71,3.9,5.11,5.11,0,0,0,5.22,4.08c3.12,0,4.74-1.25,5-2.68S240.79,584.69,239.85,583.89Z"/><path class="cls-25" d="M54.49,533A107.38,107.38,0,0,1,19.1,470.2c-2.27-13.1,16.06-85.63,25.7-112.52,4.14-11.55,29.13-52.28,34.56-55.5s20.13-11.72,27-6.16,1,65.38-6,74.26S85.38,401.8,83.34,411c-4.89,22-11.34,28.82-10.1,45.5.32,4.47,1.15,20.19,21.55,47.65,13.06,17.57,55.9,41.71,63.88,60,5.37,12.34-16.94,32-30.27,27C99.82,580.37,98.4,571.21,54.49,533Z"/><path class="cls-25" d="M231,446.75c-7.82.87-33.53,4.62-61.9,6.88s-31.77,1.18.33,4.16,58.42-.64,61.76-3.43S238.81,445.88,231,446.75Z"/><path class="cls-25" d="M183.54,362.25a46.75,46.75,0,0,1-20.23-3.7c-10.22-4.13-7,1.74,2.83,6.09s30.45,6.53,33.93,5.66,17.4-12.62,20-18.93,3.58-17.6-2.17-10.44-8.9,15.16-13.26,16.5S186.8,362.25,183.54,362.25Z"/><path class="cls-25" d="M131.18,447.22c-3.45,2.19-20.23-8.92-24.8-21.1s-8.48-23.49-1.74-13.92,19.36,21.75,25,25S133.57,445.7,131.18,447.22Z"/></svg>