<svg id="Слой_1" data-name="Слой 1" xmlns="http://www.w3.org/2000/svg" viewBox="0 0 596 997"><defs><style>.cls-1{fill:#ffac00;}.cls-2{fill:#fff;fill-rule:evenodd;}</style></defs><rect class="cls-1" x="-199.89" y="203.03" width="995.54" height="592.55" transform="translate(-202.52 795.35) rotate(-89.79)"/><path class="cls-2" d="M28.69,8.24l88.6,214L16.9,233.33,94.27,353.05,17.83,483.83l87.48,69.07L24,592.39l43.17,32.55-53,100.19,44.44-6.68L11.38,847.61l70.22,5.76-55.49,78,196.17-92.09-23,127.09,70-130.78L381.61,947.08,312.77,726.51l171.07,48.35-152-307.42,221.58,53.78L512.21,391.37l73.16-17.43-50.93-43.59L582.56,184.7,373.32,267.4,526.57,33.48,333.72,66.26,262.06-51.07,181.94,36.06Z"/></svg>