<?xml version="1.0" encoding="UTF-8" standalone="no"?>
<!DOCTYPE svg PUBLIC "-//W3C//DTD SVG 1.1//EN" "http://www.w3.org/Graphics/SVG/1.1/DTD/svg11.dtd">
<svg width="100%" height="100%" viewBox="0 0 2560 1440" version="1.1" xmlns="http://www.w3.org/2000/svg" xmlns:xlink="http://www.w3.org/1999/xlink" xml:space="preserve" xmlns:serif="http://www.serif.com/" style="fill-rule:evenodd;clip-rule:evenodd;stroke-miterlimit:10;">
    <g id="_1" serif:id="1" transform="matrix(1.33333,0,0,1.2,0,0)">
        <g id="Ресурс-35.svg" serif:id="Ресурс 35.svg" transform="matrix(1.39366,0,0,1.55766,405.511,734.374)">
            <clipPath id="_clip1">
                <rect x="-272.63" y="-467.295" width="545.26" height="771.139"/>
            </clipPath>
            <g clip-path="url(#_clip1)">
                <g transform="matrix(1,0,0,1,-272.63,-467.295)">
                    <clipPath id="_clip2">
                        <rect x="0" y="0" width="545.26" height="934.59"/>
                    </clipPath>
                    <g clip-path="url(#_clip2)">
                        <g id="Слой_2">
                            <g id="жен_копия_2">
                                <g id="Слой_45_копия_2">
                                    <path d="M244,19.57C242.43,14.09 233.43,10.31 227.8,8.02C198.6,-3.85 181.76,1 181.76,1C169.35,1.73 159.91,4.48 141.02,10C124.13,14.92 117.75,18.3 115.37,19.62C103.67,26 96.23,33.47 91,38.81C83.298,46.715 76.613,55.55 71.1,65.11C64.884,75.98 60.142,87.629 57,99.75C52.59,116.62 52.56,129.33 52.51,146.58C52.44,170 52.4,183 57.63,199.5C60.1,207.28 63.19,214.18 66.63,228.36C69.1,238.6 70.43,244.26 70.48,252.1C70.48,255.1 70.38,264.46 64.39,282.89C59.82,296.94 57.86,297.75 53.16,310.47C49.02,321.69 42.16,340.64 42.9,364.68C43.432,383.662 48.489,402.246 57.65,418.88C73.3,446.52 99.28,459.41 107.05,463.14C125.05,471.81 139.32,473.06 165.1,475.33C195.4,477.99 223.1,480.09 252.02,466.03C269.02,457.76 278.42,447.83 280.56,445.5C291.89,433.21 296.29,421.14 301.73,405.73C314.95,368.27 313.37,337.25 312.96,330.68C311.96,314.59 311.21,302.9 305.26,288.68C301,278.5 298.67,273 296.79,262C294.87,250.76 295.02,242.58 297.22,233.14C306.44,193.6 308.31,191.53 311.01,177.33C313.41,164.7 317.09,144.47 313.58,118.95C311.775,106.246 308.562,93.783 304,81.79C300.055,71.182 295.099,60.979 289.2,51.32C283.58,41.75 279.8,37.1 275.09,33.04C269.26,28.04 263.99,24.04 258.09,23.1C248.63,21.65 249.91,25.02 246.39,23.26C245.07,22.6 244.37,20.93 244,19.57Z" style="fill:url(#_Linear3);fill-rule:nonzero;"/>
                                    <path d="M249.22,22.35C249.16,20.04 246.9,18.21 240.22,14.44C232.12,9.85 228.07,7.55 223.54,6.1C216.71,3.9 211.65,3.6 201.94,3.1C191.51,2.57 183.14,2.1 172.22,4.17C165.16,5.49 159.01,7.47 150.63,10.17C145.79,11.72 142.75,12.4 138.87,14.23C134.337,16.397 130.097,19.129 126.25,22.36C118.859,28.498 112.19,35.456 106.37,43.1C96.06,56.2 90.9,62.75 86.27,71.32C75.55,91.12 72.84,109.04 71.08,121.32C69.017,134.486 68.654,147.862 70,161.12C71.19,172.42 73.93,182.41 79.4,202.38C84.87,222.35 87.4,227.58 88.81,240.87C89.67,248.8 90.46,256.69 88.81,266.75C87.38,275.46 85.54,277.16 77.05,298.6C71.67,312.2 68.65,319.9 65.72,330.68C63.18,340.03 61.58,345.91 61.02,353.34C59.67,371.72 65.63,386.15 69,394C72.37,401.85 82.11,423.95 105.56,439.12C126.82,452.87 147.48,453.26 168.21,453.66C186.21,454 216.8,454.18 247.11,435.05C260.11,426.84 273.86,418.18 281.54,401.48C286.54,390.6 287.04,380.48 275.12,304.84C270.84,277.68 269.44,270.49 271.27,258.01C274.05,239.11 280.06,236.55 289.27,208.19C295.04,190.34 300.49,173.5 300.18,150.88C299.843,134.265 296.586,117.838 290.56,102.35C283.27,83.6 274.49,73.14 272.56,70.91C267.825,65.288 262.356,60.327 256.3,56.16C249.97,51.89 243.69,53.16 238.77,47.39C237.41,45.8 234.28,42.13 235.14,38.39C235.82,35.39 238.5,34.8 244.76,28.56C249,24.25 249.24,23.08 249.22,22.35Z" style="fill:url(#_Linear4);fill-rule:nonzero;"/>
                                    <path d="M208.27,261.19C205.27,266.66 208.41,275.49 211.48,282.35C217.64,296.14 221.64,302.03 226.66,311.65C236.26,330.06 235.5,335.15 242.91,340.94C247.83,344.79 258.07,351.48 263.65,348C269.23,344.52 266.23,332.76 263.01,303.95C260.06,277.58 258.59,264.39 260.23,252.85C262.8,234.76 267.96,235.33 277.98,205.38C284.19,186.8 289.59,170.66 289.74,149.14C289.81,138.79 291.88,122.9 280.54,100.39C277.93,95.2 282.43,101.82 250.66,64.84C247.4,61.05 235.96,54.79 231.58,51.69C229.44,50.18 230.99,50.81 226.02,55.06C222.55,58.06 217.02,61.06 217.25,61.48C217.48,61.9 222.42,59.79 226.66,59.55C229.76,59.38 230.78,64.21 231.58,64.9C238.97,71.25 238.28,70.5 240.77,72.81C243.64,75.46 241.94,74.03 256.17,88.2C268,100 269.43,103 270.28,104.67C271.73,107.45 274.5,104.57 278.62,120.67C280.207,126.503 281.419,132.432 282.25,138.42C282.82,141.82 282.39,146.9 282.47,152.11C282.47,156.01 282.47,161.94 277.12,182.68C274.63,192.36 271.12,198.25 266.43,209.41C259.31,226.29 255.86,226.83 254.67,228.41C252.53,231.31 251.04,233.54 239.06,241.88C234.17,245.29 224.88,251.81 214.9,257.7C211.7,259.66 209.5,259 208.27,261.19Z" style="fill:rgb(95,26,4);fill-rule:nonzero;"/>
                                    <path d="M162.62,239.8C160.62,243.8 162.96,247.97 163.9,256.16C164.807,262.759 164.807,269.451 163.9,276.05C162.54,284.65 161.44,291.55 156.21,296.57C153.13,299.52 151.03,300.65 133.11,306.04C119.03,310.27 118.77,311.04 118.2,311.97C112.38,321.49 135.61,345.7 153,360.4C173.11,377.4 185.08,387.51 202.07,386.4C224.52,384.9 238.64,364.9 246.33,354C257.48,338.2 266,316.46 259,309.88C257.37,308.34 256.58,308.03 242.16,305.23C229.89,302.85 227.65,301.7 226.16,300.74C220.16,296.99 217.28,291.48 215.25,287.59C212.311,281.683 210.567,275.253 210.12,268.67C209.12,255.74 213.34,252.33 210.12,245.58C207.12,239.37 200.91,236.69 196.97,234.99C185.62,230.11 175.25,233.43 169.39,235.31C165,236.71 164,237.05 162.62,239.8Z" style="fill:rgb(255,185,136);fill-rule:nonzero;"/>
                                    <path d="M160.38,236.6C160.7,239.16 163.26,247.5 163.26,249.43C163.4,253.622 163.831,257.798 164.55,261.93C165.19,264.5 172.55,272.84 174.81,274.44C177.07,276.04 190.2,285.35 194.69,287C199.18,288.65 206.56,291.49 208.16,291.49C209.76,291.49 217.79,292.13 217.79,292.13C217.79,292.13 216.5,288.61 215.22,286.04C213.94,283.47 209.77,270.32 209.77,267.76C209.77,265.2 209.13,258.46 209.13,254.29C209.13,250.12 193.41,245.29 191.13,242.74C188.85,240.19 160.38,236.6 160.38,236.6Z" style="fill:rgb(246,141,86);fill-rule:nonzero;"/>
                                    <path d="M123.6,210.94C126.72,215.708 130.225,220.213 134.08,224.41C138.44,228.998 143.236,233.151 148.4,236.81C155.194,241.735 162.425,246.03 170,249.64C183.86,256.59 191.62,258.34 193.95,258.83C197.59,259.676 201.326,260.036 205.06,259.9C209.683,259.616 214.233,258.603 218.54,256.9C220.42,256.2 226.15,253.96 235.85,247.06C242.958,242.272 249.488,236.678 255.31,230.39C260.96,224.358 265.779,217.598 269.64,210.29C273.96,202.01 275.71,195.46 278.19,186.12C280.741,176.296 282.529,166.289 283.54,156.19C285.18,142.41 285.97,135.37 284.39,128.19C283.94,126.13 285.39,122.89 277.44,107.02C266.29,84.77 262.11,83.27 260.66,81.36C255.501,74.698 249.373,68.846 242.48,64C235.17,58.6 226.48,50.69 210.62,51.6C199.51,52.24 177.84,74.36 170.43,78.76C164.65,82.18 147.55,91.37 143.06,93.51C140.27,94.84 110.98,103.99 109.91,114.51C108.144,130.72 108.218,147.077 110.13,163.27C111.84,178 114.1,196 123.6,210.94Z" style="fill:rgb(255,169,117);fill-rule:nonzero;"/>
                                    <path d="M121.46,134.6C121.25,142.51 120.34,140.07 122.32,167.96C123.85,189.54 124.61,200.32 128.32,208.16C131.84,215.62 136,220.41 141.15,226.33C149.021,235.422 158.34,243.153 168.73,249.21C174.739,252.608 181.037,255.469 187.55,257.76C196.17,261.03 199.22,261.32 200.81,261.4C206.94,261.71 212.11,259.89 218.13,256.91C231.642,250.115 243.699,240.746 253.62,229.33C259.582,222.348 264.549,214.574 268.38,206.23C272.87,196.33 274.57,184.6 277.78,161.54C281.09,137.8 280.44,133.44 279.28,129.47C277.06,121.87 273.28,116.47 265.6,105.74C259.32,96.91 258.43,97.33 249.13,85.64C235.13,68.04 231.72,60.3 225.61,60.83C222.95,61.07 222.16,62.67 216.42,67.46C213.42,69.93 206.89,73.53 195.89,80.72C185.65,87.4 178,91.55 165.08,99.11C153.92,105.62 143.91,111.11 133.43,117.5C131.27,118.82 123.76,122.41 121.67,127.76C120.51,130.74 121.49,133.55 121.46,134.6Z" style="fill:rgb(255,185,136);fill-rule:nonzero;"/>
                                    <g id="Слой_44_копия_2">
                                        <path d="M235,121.93C237.85,120.93 238.84,119.87 241.41,118.73C244.82,117.311 248.467,116.548 252.16,116.48C255.936,116.15 259.736,116.758 263.22,118.25C266.013,119.561 268.48,121.477 270.44,123.86C272.32,126.16 273.69,128.86 273.32,129.15C272.95,129.44 271.45,127.37 268.51,125.3C266.316,123.736 263.88,122.544 261.3,121.77C256.49,120.5 252.21,121.89 247.66,123.38C243.11,124.87 241.6,126.25 237.08,126.75C236.46,126.81 231.28,127.35 230.83,125.94C230.49,124.94 232.78,123.16 232.91,123.06C233.544,122.577 234.249,122.196 235,121.93Z" style="fill:rgb(166,70,20);fill-rule:nonzero;"/>
                                        <path d="M232,151C232.48,152.36 233.89,153 236.49,154.1C238.778,155.079 241.186,155.751 243.65,156.1C246.737,156.508 249.863,156.508 252.95,156.1C256.195,155.839 259.394,155.167 262.47,154.1C266.25,152.71 267.65,151.41 268.47,150.47C269.29,149.53 270.37,148.22 270.4,146.72C270.47,142.12 260.86,138.9 259.92,138.6C255.386,137.152 250.535,137.003 245.92,138.17C241.487,139.201 237.484,141.589 234.47,145C233.33,146.33 231.25,148.82 232,151Z" style="fill:white;fill-rule:nonzero;"/>
                                        <ellipse cx="251.51" cy="146.93" rx="9.67" ry="9.09" style="fill:rgb(43,62,0);"/>
                                        <ellipse cx="251.29" cy="146.37" rx="6.57" ry="6.18"/>
                                        <ellipse cx="246.96" cy="142.78" rx="2.62" ry="2.25" style="fill:rgb(255,254,255);"/>
                                        <path d="M231,149.14C230.2,148.08 234.19,143.85 234.75,143.26C236.499,141.234 238.6,139.54 240.95,138.26C245.563,136.031 250.755,135.283 255.81,136.12C258.142,136.621 260.379,137.489 262.44,138.69C264.086,139.635 265.657,140.705 267.14,141.89C268.469,142.893 269.564,144.173 270.35,145.64C270.64,146.08 272.22,148.12 271.84,148.31C271.46,148.5 268.84,146.58 268,145.74C268,145.74 267.27,144.1 263.72,142.11C261.493,140.776 259.021,139.902 256.45,139.54C253.244,139.106 249.985,139.251 246.83,139.97C244.02,140.44 242.62,140.68 241.05,141.57C239.161,142.758 237.473,144.24 236.05,145.96C234.68,147.6 233.79,149.2 232.05,149.38C231.82,149.39 231.27,149.45 231,149.14Z" style="fill:rgb(110,43,2);fill-rule:nonzero;"/>
                                        <path d="M179,121.1C176.15,120.1 175.16,119.04 172.59,117.89C169.181,116.468 165.533,115.708 161.84,115.65C158.065,115.313 154.264,115.917 150.78,117.41C147.992,118.729 145.527,120.644 143.56,123.02C141.67,125.33 140.31,128.02 140.68,128.32C141.05,128.62 142.55,126.53 145.49,124.47C147.684,122.906 150.12,121.714 152.7,120.94C157.51,119.66 161.79,121.06 166.33,122.54C170.87,124.02 172.39,125.42 176.92,125.91C177.54,125.98 182.72,126.52 183.17,125.11C183.51,124.11 181.17,122.32 181.09,122.22C180.454,121.743 179.749,121.365 179,121.1Z" style="fill:rgb(166,70,20);fill-rule:nonzero;"/>
                                        <path d="M182,150.77C181.52,152.13 180.11,152.77 177.51,153.87C175.22,154.844 172.813,155.516 170.35,155.87C167.263,156.278 164.137,156.278 161.05,155.87C157.806,155.598 154.609,154.926 151.53,153.87C147.75,152.48 146.35,151.18 145.53,150.23C144.71,149.28 143.63,147.99 143.6,146.49C143.53,141.89 153.14,138.67 154.08,138.37C158.614,136.92 163.465,136.771 168.08,137.94C172.51,138.977 176.51,141.368 179.52,144.78C180.63,146.13 182.71,148.62 182,150.77Z" style="fill:white;fill-rule:nonzero;"/>
                                        <ellipse cx="163.23" cy="146.66" rx="9.67" ry="9.09" style="fill:rgb(43,62,0);"/>
                                        <ellipse cx="163.01" cy="146.1" rx="6.57" ry="6.18"/>
                                        <ellipse cx="159.62" cy="141.48" rx="2.62" ry="2.25" style="fill:rgb(255,254,255);"/>
                                        <path d="M182.92,148.31C183.72,147.25 179.73,143.02 179.17,142.43C177.421,140.404 175.32,138.711 172.97,137.43C168.354,135.21 163.164,134.466 158.11,135.3C155.779,135.799 153.541,136.663 151.48,137.86C149.837,138.813 148.266,139.886 146.78,141.07C145.454,142.072 144.359,143.348 143.57,144.81C143.28,145.25 141.7,147.29 142.08,147.48C142.46,147.67 145.08,145.75 145.92,144.92C145.92,144.92 146.65,143.27 150.2,141.28C152.43,139.953 154.901,139.083 157.47,138.72C160.676,138.287 163.934,138.429 167.09,139.14C169.9,139.62 171.3,139.86 172.87,140.75C174.753,141.942 176.44,143.42 177.87,145.13C179.24,146.78 180.13,148.37 181.87,148.55C182.14,148.55 182.68,148.61 182.92,148.31Z" style="fill:rgb(110,43,2);fill-rule:nonzero;"/>
                                    </g>
                                    <path d="M238.21,16.63C238.85,15.63 239.49,14.22 240.13,14.22C240.77,14.22 242.7,16.15 243.82,16.79C245.515,18.128 247.122,19.574 248.63,21.12C248.748,21.699 248.802,22.289 248.79,22.88C248.79,24 246.39,29.78 245.58,31.38C244.77,32.98 233.24,47.26 232.43,48.7C231.62,50.14 224.9,57.52 221.53,59C218.16,60.48 195.87,73 192.02,74.88C188.17,76.76 168.77,88.88 162.51,91.72C156.25,94.56 137.82,106.11 134,108.52C130.18,110.93 112.62,121.77 111,122.26C109.38,122.75 111.38,117.98 111.54,115.26C111.7,112.54 112.18,102.75 112.18,101.47C112.18,100.19 114.9,102.11 116.18,101.79C117.46,101.47 131.09,94.79 132.86,93.79C134.63,92.79 157.55,79.79 159.32,78.56C161.09,77.33 179.2,65.73 181.32,64.45C183.44,63.17 204.41,49.21 205.85,47.93C207.29,46.65 223.85,33.5 224.94,32.53C226.03,31.56 234.72,20.4 235.36,19.44C236.214,18.411 237.169,17.47 238.21,16.63Z" style="fill:rgb(146,52,3);fill-rule:nonzero;"/>
                                    <path d="M116.38,96.49C126.65,91.49 144.29,81.74 144.29,81.74C153.91,74.94 149.82,79.08 174.76,63.45C185,57 190.16,53.8 195.92,49.66C209.66,39.8 216.53,34.87 220.62,29.14C224.54,23.64 230.62,19.7 233.77,13.74C233.94,13.41 234.59,12.15 235.69,11.98C237.04,11.77 238.36,13.3 238.74,13.74C239.32,14.41 239.74,14.88 239.74,15.5C239.74,16.57 238.43,17.1 237.02,18.23C236.47,18.67 236.2,18.96 233.81,21.92C229.81,26.92 227.75,29.42 226.75,30.74C222,36.89 213.5,43.57 205.87,49.5C195.62,57.5 187.21,63.09 183.74,65.38C169.61,74.69 171.49,72.08 148.74,85.91C140.04,91.2 130.06,94.23 121.47,99.7C119.67,100.85 115.15,103.8 112.97,102.26C111.71,101.37 111.19,98.93 111.97,97.93C112.26,97.58 112.97,97.37 114.38,96.93C115.06,96.85 115.73,96.702 116.38,96.49Z" style="fill:rgb(160,63,6);fill-rule:nonzero;"/>
                                    <path d="M110.5,78C108.491,87.4 107.257,96.948 106.81,106.55C104.81,137.47 104.31,132.41 104.25,141.35C104.218,153.364 105.02,165.367 106.65,177.27C108.09,188.65 108.88,189.85 112.11,211.27C115.34,232.69 115.19,235.7 115,238C114.08,248.94 110.46,256.69 104.74,269C102,274.87 97.62,282.51 89,297.54C79.11,314.8 73.15,324.54 76.33,328.01C77.06,328.8 78.1,329.5 78.9,329.13C92.69,322.71 102.21,317.75 103.11,317.42C106.64,316.14 122.52,308.42 140.8,303.31C145.31,302.04 159.34,301.93 163.09,279.73C164.69,270.28 164.09,264.02 163.25,253.43C163.07,251.01 161.57,245.13 160.25,244.43C151.91,240.26 149.18,236.74 140.04,229.52C133.7,224.52 131.54,222.14 127.53,216.37C120.99,206.95 118.53,202.9 116.3,183.98C114.884,175.105 113.923,166.163 113.42,157.19C112.42,142.3 111.51,129.6 111.81,123.68C112.3,114.22 112.22,108.47 112.3,104.76C112.48,95.76 111.97,88.99 112.46,84.55C113.53,74.74 113.94,67.14 113.58,67.07C113.22,67 111.65,72.77 110.5,78Z" style="fill:rgb(95,26,4);fill-rule:nonzero;"/>
                                    <path d="M214.53,148.93C215.44,156.93 214.2,153.16 214.85,157.05C215.353,160.605 216.156,164.111 217.25,167.53C218.43,171.19 220.84,173.53 223.25,178.32C224.147,179.829 224.591,181.565 224.53,183.32C224.338,185.183 223.552,186.936 222.29,188.32C219.86,191.12 216.51,191.75 213.73,192.27C211.175,192.848 208.56,193.123 205.94,193.09C205.33,193.09 203.01,193.47 203,193.09C202.99,192.71 203.92,192.31 206.16,192.02C212.73,191.16 212.04,190.76 214.07,189.61C215.469,188.817 216.757,187.842 217.9,186.71C220.53,184.39 219.99,183.53 220.15,182.65C220.45,181.01 220.15,179.93 218.97,177.52C217.79,175.11 217.52,173.86 215.4,169.19C214.17,166.46 213.95,165.39 213.11,161.33C212.36,157.76 212.46,154.85 212.46,150C212.46,146.95 214.21,142.43 214.6,142.41C214.99,142.39 214.25,146.57 214.53,148.93Z" style="fill:rgb(252,116,64);fill-rule:nonzero;"/>
                                    <path d="M215.65,146.15C216.57,154.15 216.07,155.51 216.72,159.41C217.167,163.318 218.482,167.077 220.57,170.41C222.69,173.61 224.86,175.01 227.3,179.82C228.202,181.327 228.647,183.065 228.58,184.82C228.388,186.683 227.602,188.436 226.34,189.82C223.92,192.62 220.56,193.25 217.79,193.82C215.203,194.172 212.588,194.279 209.98,194.14C209.36,194.14 202.4,194.14 202.39,193.72C202.38,193.3 206.14,193.07 208.39,192.86C215.04,192.22 215.77,192.08 217.8,190.94C219.37,190.363 220.793,189.448 221.97,188.26C224.59,185.94 224.05,185.08 224.21,184.2C224.692,182.403 224.253,180.48 223.04,179.07C221.61,177.07 220.55,174.76 218.44,170.07C216.917,166.974 215.769,163.708 215.02,160.34C214.27,156.76 214.27,154.07 214.27,149.22C214.27,146.17 214.41,141.22 214.8,141.22C215.19,141.22 215.38,143.79 215.65,146.15Z" style="fill:rgb(254,150,93);fill-rule:nonzero;"/>
                                    <path d="M176.89,203.56C176.11,204.251 175.53,205.139 175.21,206.13C174.929,206.746 174.784,207.415 174.784,208.092C174.784,209.999 175.938,211.728 177.7,212.46C178.99,213.07 179.31,212.46 181.46,213.02C182.67,213.31 184.37,213.72 185.31,215.02C185.836,215.885 186.087,216.889 186.03,217.9C186.28,220.78 188.19,222.9 190.28,225.12C193.134,228.064 196.788,230.108 200.79,231C203.2,231.65 210.63,233.64 217.71,229.8C219.48,228.8 224.16,226.3 226.29,221.3C227.29,218.87 227.34,216.82 229.29,215.69C230.63,214.89 231.4,215.44 235.29,214.69C237.77,214.23 239.02,213.99 239.86,213.08C241.59,211.2 240.86,208.23 240.74,207.95C240.19,205.95 238.59,204.08 237.69,204.34C237.1,204.51 237.23,205.5 236.49,207.15C235.871,208.415 235.027,209.557 234,210.52C231.64,212.68 227.66,212.07 226.23,211.88C214.54,210.35 202.65,212.4 190.87,212.36C187.639,212.394 184.464,211.505 181.72,209.8C180.61,209.05 178.86,207.87 178.52,205.95C178.25,204.49 178.88,203.09 178.36,202.82C177.84,202.55 177.32,203.2 176.89,203.56Z" style="fill:rgb(254,166,112);fill-rule:nonzero;"/>
                                    <path d="M184.91,215C184.05,217 187.34,220.35 189.24,222.29C191.549,224.65 194.339,226.485 197.42,227.67C201.53,229.19 204.94,229.03 208.49,228.87C212.04,228.71 214.7,228.58 217.87,227.02C220.09,225.93 221.44,224.64 224.12,222.02C227.3,218.97 227.48,217.85 227.33,217.13C226.969,216.12 226.171,215.326 225.16,214.97C219.39,212.13 208.54,213.79 198.86,213.92C190.25,214.11 185.79,213 184.91,215Z" style="fill:rgb(255,106,91);fill-rule:nonzero;"/>
                                    <path d="M179,207.81C180.129,208.849 181.564,209.495 183.09,209.65C184.31,209.844 185.545,209.928 186.78,209.9C189.66,209.98 189.04,209.46 194.47,209.01C198.56,208.68 198.22,208.49 202.17,208.13C204.89,207.89 207.75,208.44 211.47,208.53C214.64,208.61 216.93,207.87 219.97,208.53C221.62,208.89 221.91,209.09 226.71,210.3C230.28,211.2 231.1,211.3 232.24,211.18C235.29,210.75 237.08,208.69 237.37,209.01C237.66,209.33 236.44,211.01 234.73,212.46C232.498,214.202 229.838,215.311 227.03,215.67C222.303,216.664 217.505,217.28 212.68,217.51C208.185,217.719 203.68,217.612 199.2,217.19C195.757,216.889 192.345,216.3 189,215.43C185.79,214.496 182.737,213.09 179.94,211.26C178.45,210.26 176.94,209.09 177.13,207.97C177.2,207.6 177.47,207.07 177.86,206.97C178.25,206.87 178.65,207.45 179,207.81Z" style="fill:rgb(244,80,70);fill-rule:nonzero;"/>
                                    <path d="M190.36,219.12C191.326,220.376 192.559,221.4 193.97,222.12C198.22,224.66 198.6,225.02 199.34,224.77C200.484,224.272 201.217,223.127 201.19,221.88C201.061,220.704 200.371,219.66 199.34,219.08C198.08,218.26 197.34,218.73 194.77,218.35C191.66,217.9 190.02,216.84 189.64,217.35C189.38,217.74 190,218.57 190.36,219.12Z" style="fill:rgb(254,121,101);fill-rule:nonzero;"/>
                                    <path d="M198.3,211.26C196.08,211.8 196.64,211.18 193.17,211.9C190.89,212.37 189.75,212.61 189.72,213.02C189.69,213.43 191.39,214.02 193.01,214.55C196.01,215.45 198.01,215.99 199.59,215.03C199.89,214.85 201.01,214.18 201.03,213.1C201.001,212.29 200.499,211.569 199.75,211.26C199.28,211.098 198.77,211.098 198.3,211.26Z" style="fill:rgb(245,101,82);fill-rule:nonzero;"/>
                                    <path d="M177.46,207.81L179.62,210.86L181.87,212.54L185.15,214.06L188.76,215.35L193.01,216.15L197.26,216.71L201.91,217.27L207.2,217.27L215.06,217.11L222.52,216.39L227.01,215.59L231.26,214.31L235.03,211.98L237.59,209.17" style="fill:none;fill-rule:nonzero;stroke:rgb(255,29,37);stroke-opacity:0.29;stroke-width:0.25px;"/>
                                </g>
                                <g id="Слой_46_копия_2">
                                    <path d="M274.56,312.93C280.16,312.93 284.8,316.5 291.23,321.48C297.864,326.713 303.512,333.086 307.91,340.3C320.26,359.52 328.71,375.96 329.72,377.93C344.72,407.36 352.29,422.08 353.24,424.55C355.78,431.12 359.24,440.87 368.24,450.2C371.928,454.005 376.097,457.313 380.64,460.04C418.88,483.77 453.23,543.54 475.37,560.22C475.95,560.66 480.7,565.55 481.46,567.91C483.71,574.96 476.31,584.55 466.06,582.67C461.35,581.8 460.12,579.15 458.69,577.21C449.06,564.21 426.85,554.27 414.43,543.86C390.43,523.78 388.61,526.74 369.95,510.93C349.55,493.64 336.57,477.24 328.47,466.88C306.23,438.46 305.47,427.88 283.99,405.3C282.13,403.3 275.5,396.46 267.32,386.49C254.78,371.21 248.52,363.57 247.22,356.12C243.84,336.91 260.15,313 274.56,312.93Z" style="fill:rgb(255,185,136);fill-rule:nonzero;"/>
                                    <path d="M18.83,668.3C12.41,674.93 6.48,686.39 3.43,698.24C1.38,706.24 0.06,711.33 0.01,718.76C0.01,724.9 -0.09,733.2 4.29,741.86C10.39,753.93 22.82,762.16 25.29,760.25C26.5,759.25 21.89,753.25 23.58,751.69C24.72,750.63 27.2,752.93 31.28,752.12C33,751.78 35.79,750.72 35.98,749.12C36.26,746.8 30.87,744.97 31.28,743.56C31.69,742.15 38.08,743.29 38.55,741.85C38.96,740.58 34.2,739.23 30.85,735.43C25.85,729.77 29.38,721.73 29.85,715.12C30.44,707.43 28.5,706.01 29.85,706.12C30.95,706.23 31.23,704.86 33.8,713.18C36.24,721.05 38.96,721.92 39.36,728.18C39.64,732.45 38.55,734.97 40.22,736.31C41.89,737.65 45.62,737.09 47.49,735.03C49.54,732.75 48.34,729.83 47.92,721.34C47.7,716.92 48.06,718.51 47.92,710.65C47.82,705.41 47.72,699.96 47.06,693.97C46.06,685.14 44.93,684.41 44.49,679.43C43.71,670.57 46.76,665.7 50.91,653.77C55.91,639.45 53.63,640.38 58.61,624.69C63.24,610.09 65.54,608.22 72.29,590.91C77.238,578.503 81.38,565.79 84.69,552.85C86.56,545.25 87.32,540.43 91.11,506.66C95.16,470.6 97.18,452.57 97.52,446.79C99.12,419.72 97.46,415.14 101.37,400.61C105.45,385.45 109,383.97 111.21,369.39C111.21,369.39 113.91,351.48 106.93,329.62C104.83,323.05 102.53,318.38 98.8,317.62C96.55,317.18 94.67,318.37 88.97,322.33C79.51,328.9 74.79,332.18 73.57,333.45C67.9,339.38 65.24,346 63.3,352.27C57.16,372.16 56.65,394.01 56.46,406.58C55.99,436.7 56.82,444.79 55.6,469.88C54.87,484.88 54.1,491.88 53.04,498.53C50.47,514.63 47.67,519.97 44.48,535.31C41.92,547.63 42.09,552.04 39.78,574.65C36.85,603.31 35.86,602.21 33.58,622.33C33.06,626.9 31.07,635.75 30.37,640.33C29.412,646.208 27.984,652 26.1,657.65C25.65,659.11 25.36,662.13 23.53,663.65C21.857,665.088 20.286,666.642 18.83,668.3Z" style="fill:rgb(255,185,136);fill-rule:nonzero;"/>
                                    <path d="M496.33,577.53C505.18,580.14 515.99,587.18 524.48,596C530.2,601.93 533.86,605.73 537.57,612.17C540.63,617.49 544.77,624.68 545.22,634.38C545.86,647.89 539.09,661.17 536.04,660.7C534.53,660.47 535.57,652.95 533.32,652.42C531.8,652.06 530.78,655.28 526.83,656.58C525.16,657.13 522.22,657.58 521.26,656.29C519.87,654.41 523.67,650.17 522.62,649.14C521.57,648.11 516.62,652.26 515.45,651.23C514.28,650.2 517.94,646.81 518.99,641.86C520.55,634.47 513.52,629.21 509.82,623.7C505.52,617.31 506.5,615.11 505.4,615.89C504.49,616.53 503.57,615.48 505.4,623.98C507.16,631.98 505.22,634.13 507.93,639.74C509.79,643.59 511.98,645.25 511.19,647.24C510.4,649.23 506.87,650.58 504.19,649.7C501.29,648.7 500.89,645.6 497.08,638C495.08,634 495.56,635.61 491.81,628.7C489.32,624.09 486.72,619.3 484.34,613.76C480.83,605.6 481.48,604.39 479.41,599.84C475.73,591.75 470.68,589.01 461.19,580.67C449.8,570.67 469.57,555.23 472.42,558.84C475.9,563.26 474.88,562.05 480.72,567.59C481.83,568.65 487.52,575.34 489.85,575.75C492.05,576.188 494.215,576.783 496.33,577.53Z" style="fill:rgb(255,185,136);fill-rule:nonzero;"/>
                                </g>
                                <g id="Слой_47_копия_2">
                                    <path d="M291.06,616.47C289.06,610.26 288.52,604.21 285.65,598.35C281.96,590.84 280.36,581.48 277.41,573.65C269.96,553.87 272.03,553.43 268.47,545.41C267.24,542.65 268.02,535.41 264.47,527.61C260.63,519.13 258.94,515.44 258.47,509.86C258.2,506.64 258.65,503.58 259.54,497.46C260.581,490.456 262.081,483.528 264.03,476.72C266.3,468.59 266.61,469.25 269.37,460.04C273.16,447.44 275.13,437.71 275.58,435.45C277.5,425.77 278.46,420.94 278.58,418.35C278.74,414.42 278.53,410.61 279.86,410.22C281.19,409.83 282.69,412.44 284.14,414.5C287.29,418.96 284.57,414 296.33,427.97C306.89,440.52 316.85,453.41 316.85,453.41C334.66,476.47 343.64,488.08 347.43,492.11C354.934,500.092 362.933,507.594 371.38,514.57C377.1,519.3 381.32,522.35 389.77,528.46C389.77,528.46 424.36,561.91 453.27,573.79C453.72,573.98 459.69,572.47 460.97,572.3C463.9,571.9 470.65,568.81 472.97,565.24C477.86,557.66 474.54,564.24 477.25,557.76C478.17,555.53 473.61,548.76 470.19,543.64C469.57,541.57 458.19,527.64 455.19,525.04C437.4,509.8 433.19,504.09 433.19,504.09C424.85,497.03 420.19,492.2 405.61,479.09C397.04,471.38 388.7,466.26 382.73,459.63C379.57,455.962 376.215,452.467 372.68,449.16C369.27,446.01 368.4,445.58 366.48,443.38C363.53,440 362.29,437.24 359.42,431.19C355.85,423.65 353.81,419.36 351.73,415.37C348.42,409.05 347.78,408.84 343.6,401.47C338.82,393.03 338.6,391.47 333.77,382.23C329.3,373.74 329.39,374.92 321.58,361.06C315.58,350.51 314.12,347.24 308.96,338.82C302.76,328.69 300.58,326.29 298.7,324.5C294.23,320.24 290.3,318.31 282.45,314.45C274.14,310.337 265.396,307.167 256.38,305C247.56,302.94 248.86,304.42 242.91,302.65C240.23,301.85 237.45,301.96 236.28,303.29C235.6,304.06 235.5,304.04 235.64,304.79C235.64,304.79 236.27,308.15 232.64,316.55C229.58,323.61 211.25,328.63 193.51,327.45C186.16,326.96 176.71,323.32 157.8,316.12C149.68,313.02 146.19,311.21 144.8,307.78C144.28,306.55 143.19,303.1 141.16,302.86C140.36,302.892 139.569,303.037 138.81,303.29C137.795,303.519 136.794,303.802 135.81,304.14C132.92,305.14 122.36,308.01 115.07,310.34C105.74,313.34 96.77,316.2 86.41,322.34C77.61,327.54 73.82,331.55 72.3,333.24C68.878,337.145 66.067,341.545 63.96,346.29C60.156,354.987 58.191,364.377 58.19,373.87C57.48,399.76 56.28,376.97 54.98,423.48C54.2,451.69 54.66,459.54 53.06,479.48C52.28,489.2 51.5,495.59 50.49,501.93C48.09,516.98 45.49,524.25 43.01,535.07C40.74,544.8 42.52,540.14 37.01,580.83C32.69,612.83 30.53,628.83 30.17,629.58C29.699,630.505 29.548,631.56 29.74,632.58C30.41,635.44 34.09,635.65 47.92,639.64C50.66,640.43 53.92,641.4 55.4,639.85C55.971,639.121 56.272,638.216 56.25,637.29C56.64,634.14 57.59,633.29 59.46,628.52C61.57,623.12 63.34,616.58 65.02,611.2C67.84,602.2 68.87,601.49 74.02,588.11C77.72,578.47 80.39,571.5 83.02,562.24C86.02,551.63 87.42,543.34 89.22,532.73C91,521.92 90.79,520.93 92.59,509C95.94,486.87 97.83,482.88 100.08,466.87C102.18,451.87 103.08,444.39 102.86,434.8C102.79,431.69 102.58,426.73 103.07,426.67C103.71,426.6 104.83,434.83 106.49,442.5C110.07,458.99 113.7,461.56 118.25,476.92C121.86,489.11 124.68,498.59 123.6,510.71C123,517 121.69,521 113.33,542.36C105.44,562.5 108.33,561.08 104.71,572.47C100,587.17 94,600.58 93.24,605.65C93,607.23 92.7,609.88 92,614C90.85,620.3 90.44,620.31 90.72,621.27C91.94,625.43 100.07,626.19 118.72,628.76C131.65,630.54 125.84,629.91 133.72,630.89C148.23,632.71 156.79,633.79 167.72,634.53C180.388,635.381 193.091,635.595 205.78,635.17C219.456,634.811 233.095,633.599 246.62,631.54C257.91,629.79 255.43,629.54 273.56,626.19C279.254,625.247 284.842,623.743 290.24,621.7" style="fill:rgb(179,179,179);fill-rule:nonzero;"/>
                                    <path d="M144.34,301.71C147.55,303.56 149.13,306.71 151.07,309.4C153.17,312.29 155.07,313.14 161.23,315.92C169.98,319.85 167.08,318.54 177.48,321.92C183.969,324.128 190.734,325.424 197.58,325.77C204.99,326.15 212.403,325.059 219.39,322.56C225.49,320.39 228.53,319.3 230.3,316.15C232.07,313 233.08,310.78 233.82,303.32C233.93,302.25 236.51,302.15 237.99,302.04C240.77,301.82 244.21,303.11 246.12,303.11C247.19,303.11 244.19,308.18 242.8,311.66C240.55,317.987 236.409,323.473 230.94,327.37C224.47,331.86 218.36,332.46 208.16,333.47C200.467,334.238 192.708,334.023 185.07,332.83C174.47,331.11 167.35,327.96 158.77,324.17C151.617,321.122 145.093,316.771 139.53,311.34C136.24,308.04 133.41,304.25 135.36,303.64C137.07,303.11 138.36,302.05 140.49,302.04C142.05,302 143.62,301.29 144.34,301.71Z" style="fill:rgb(145,146,150);fill-rule:nonzero;"/>
                                    <path d="M103.93,377.08C101.09,387.59 99.66,393 99.22,398C98.709,404.727 99.143,411.493 100.51,418.1C103.92,436.84 109.51,449.49 113.33,460.44C120.99,482.31 124.16,493.44 123.17,504.91C122.03,518.08 120.51,531.36 116.71,540.68C112.768,549.964 109.617,559.565 107.29,569.38C105.54,576.05 116.42,576.91 121.89,577.61C147.425,580.796 173.173,581.94 198.89,581.03C218.81,580.22 238.46,576.11 258.34,574.62C264.44,574.16 277.01,573.29 279.29,566.92C280.29,564.17 278.88,561.69 276.29,556.23C276.29,556.23 271.29,550.23 263.55,530.32C259.17,519.12 259.03,513.32 258.75,505.77C258.52,499.46 259.75,495.99 263.03,483.96C264.82,477.48 267.5,466.81 272.87,445.47C278.81,421.82 279.2,417.06 279.28,412.97C279.5,402.51 277.77,394.7 275.86,386.03C271.93,368.21 265.68,350.11 263.86,350.53C263.38,350.64 263.38,352 263.86,362.08C264.86,382.34 265.14,383.24 264.71,386.88C263.822,394.386 261.184,401.579 257.01,407.88C252.43,414.68 247.27,418.27 241.19,422.42C235.4,426.36 226.19,427.34 208.48,427.76C196.91,428.04 207.34,427.25 180.68,428.62C167.12,429.31 145.75,428.18 138.13,426.91C133,426.05 132.13,425.63 128.72,423.06C122.32,418.26 122.93,418.34 115.46,398.47C112.71,391.14 111.6,389.66 110.76,384.78C109.58,377.9 109.76,369.31 109.9,365.97C110.04,361.09 110.34,358.79 109.9,358.7C108.94,358.49 105.94,369.62 103.93,377.08Z" style="fill:rgb(145,146,150);fill-rule:nonzero;"/>
                                    <path d="M132.15,499C133.436,504.743 135.834,510.179 139.21,515C148.92,528.15 171.15,536.89 193.09,547.08C219.76,559.46 236.9,569.76 255.95,567.6C261.78,566.94 266.21,565.29 268.14,561.83C270.79,557.09 267.43,551.38 263.01,541.3C254.24,521.3 257.9,521.97 250.82,507.95C243.74,493.93 240.09,486.69 232.22,481C222.14,473.72 209.89,473.8 185.39,473.95C164.98,474.08 172.77,477.26 144.39,480.36C141.58,480.67 135.74,481.27 132.84,485.5C130.15,489.33 131.18,494.42 132.15,499Z" style="fill:rgb(179,179,179);fill-rule:nonzero;"/>
                                </g>
                                <g id="Слой_48_копия_2">
                                    <path d="M122.32,510.5C116.79,513.7 118.16,526.73 118.47,526.75C118.796,525.641 118.937,524.485 118.89,523.33C118.49,523.23 114.83,536.05 114.19,538.33C107.03,563.33 101.88,572.68 96.19,591.33C92.3,604.18 90.19,614.67 86.78,636.23C75.45,707.12 69.68,764.52 69.68,764.52C60.68,853.82 58.68,900.16 57.27,900.09C56.91,900.09 56.45,897.09 57.27,896.66C58.46,896.04 60.73,901.44 65.83,904.79C73.74,909.99 82.4,906.27 84.21,910.35C85.21,912.54 82.9,914.07 83.36,916.76C84.47,923.28 99.87,925.76 102.6,926.17C145.67,932.73 161.19,933.01 161.19,933.01C211.31,933.93 207.3,935.15 224.91,934.3C235.79,933.77 248.83,932.96 274.52,928.74C296.01,925.21 292.52,924.25 308.73,919.74C310.58,919.23 316.85,918.58 318.56,914.61C319.56,912.34 318.07,911.31 318.99,909.05C320.49,905.36 325.14,906.2 331.82,901.35C334.28,899.56 335.88,898.35 336.52,896.22C337.45,893.16 335.7,890.66 334.39,887.22C332.73,882.88 333.04,880.38 332.68,872.68C331.68,850.97 329.21,829.35 327.54,807.68C326.86,798.8 324.38,780.52 319.42,743.97C315.04,711.69 312.85,695.56 310.42,682.39C305.68,656.48 300.33,637.7 296.31,621.66C290.88,600.02 288.6,588.34 283.48,573.34C272.06,539.85 269.37,545.59 266.8,530.14C265.6,522.91 264.75,513.02 257.8,509.19C253.52,506.83 248.87,507.83 246.25,508.33C232.67,510.92 218.58,508.13 204.77,508.76C169.22,510.39 151.44,511.21 144.05,510.47C138.65,509.93 133.2,510.47 127.79,510.04C125.12,509.85 123.78,509.65 122.32,510.5Z" style="fill:rgb(6,74,113);fill-rule:nonzero;"/>
                                    <path d="M112.48,642.22C111.62,645.22 111.2,655.9 110.34,661.03C109.48,666.16 104.34,725.61 103.5,730.31C102.66,735.01 88.1,898.8 88.1,901.8C88.1,904.8 86.82,911.63 86.82,912.92C86.82,914.21 91.95,916.76 96.66,917.62C101.37,918.48 162.51,930.45 175.77,929.62C189.03,928.79 251.89,930.91 255.77,930.48C259.65,930.05 275.01,926.63 278.86,924.92C282.71,923.21 300.67,917.22 303.24,915.92C305.81,914.62 311.79,910.36 312.24,909.08C312.69,907.8 310.53,880.85 310.1,875.72C309.67,870.59 295.56,714.5 295.99,713.22C296.42,711.94 319.89,894.1 319.89,894.1C319.89,894.1 322.89,894.95 324.16,893.67C326.025,891.604 327.345,889.105 328,886.4C328.43,883.84 329.28,860.32 329.28,857.75C329.28,855.18 320.73,776.92 320.28,767.52C319.83,758.12 307.46,693.52 307.03,687.97C306.6,682.42 300.61,658.89 300.19,656.76C299.77,654.63 293.19,624.87 292.49,621.69C286.74,596.39 278.4,576.91 268.54,540.44C266.61,533.29 264.69,525.44 263.84,525.44C253.92,525.44 243.74,526.3 220.64,528.01C215.88,528.36 184.72,529.29 179.16,529.29C173.6,529.29 137.25,528.43 134.69,527.15C132.13,525.87 112.48,642.22 112.48,642.22Z" style="fill:rgb(9,100,144);fill-rule:nonzero;"/>
                                </g>
                            </g>
                        </g>
                    </g>
                </g>
            </g>
        </g>
        <g transform="matrix(2.36407,0,0,4.25494,-1420.73,-3328)">
            <rect x="914.471" y="860.843" width="455.596" height="134.319" style="fill:rgb(255,172,0);"/>
        </g>
        <g transform="matrix(0.9,0,0,1,-170.088,-613.58)">
            <text x="1012.49px" y="925.466px" style="font-family:'Calibri-Bold', 'Calibri', sans-serif;font-weight:700;font-size:41.667px;fill:rgb(13,13,13);">Отве<tspan x="1098.38px 1114.62px " y="925.466px 925.466px ">т:</tspan></text>
        </g>
        <g transform="matrix(1,0,0,1,-119.169,-154.894)">
            <g transform="matrix(1.08741,0,0,0.353656,102.976,198.663)">
                <path d="M1684.44,124.206L575.813,124.206L483.494,358.081L575.813,597.196L1684.44,597.196L1684.44,124.206Z" style="fill:rgb(217,217,217);"/>
            </g>
            <g transform="matrix(1,0,0,1,2.08492,142.737)">
                <g transform="matrix(0.9,0,0,1,73.432,0)">
                    <text x="734.32px" y="195.043px" style="font-family:'Arial-BoldMT', 'Arial', sans-serif;font-weight:700;font-size:41.667px;">Вопро<tspan x="865.382px 888.555px " y="195.043px 195.043px ">с:</tspan></text>
                </g>
                <g transform="matrix(0.9,0,0,1,88.562,0)">
                    <text x="897.196px" y="195.043px" style="font-family:'ArialMT', 'Arial', sans-serif;font-size:41.667px;">Правильно ли пост<tspan x="1267.96px 1288.8px " y="195.043px 195.043px ">уп</tspan>ила в<tspan x="1415.36px 1438.54px " y="195.043px 195.043px ">ос</tspan>пит<tspan x="1523.82px 1546.08px 1564.7px 1586.49px 1610.8px " y="195.043px 195.043px 195.043px 195.043px 195.043px ">атель</tspan> Т<tspan x="1667.19px 1688.03px 1703.23px 1723.59px 1744.89px 1768.07px 1789.73px 1812.91px " y="195.043px 195.043px 195.043px 195.043px 195.043px 195.043px 195.043px 195.043px ">угусова </tspan>Н.Р<tspan x="1886.07px 1897.64px " y="195.043px 195.043px ">.?</tspan></text>
                </g>
            </g>
        </g>
    </g>
    <defs>
        <linearGradient id="_Linear3" x1="0" y1="0" x2="1" y2="0" gradientUnits="userSpaceOnUse" gradientTransform="matrix(272.2,0,0,272.2,42.83,238.63)"><stop offset="0" style="stop-color:rgb(176,83,5);stop-opacity:1"/><stop offset="1" style="stop-color:rgb(134,52,2);stop-opacity:1"/></linearGradient>
        <linearGradient id="_Linear4" x1="0" y1="0" x2="1" y2="0" gradientUnits="userSpaceOnUse" gradientTransform="matrix(239.27,0,0,239.27,60.85,228.18)"><stop offset="0" style="stop-color:rgb(138,56,1);stop-opacity:1"/><stop offset="0.04" style="stop-color:rgb(138,56,1);stop-opacity:1"/><stop offset="1" style="stop-color:rgb(111,37,0);stop-opacity:1"/></linearGradient>
    </defs>
</svg>
