<svg id="Слой_1" data-name="Слой 1" xmlns="http://www.w3.org/2000/svg" viewBox="0 0 765 195"><defs><style>.cls-1{fill:#e6e6e6;stroke:#ffac00;stroke-linecap:round;stroke-linejoin:round;stroke-width:3.13px;}.cls-2{font-size:34px;font-family:Calibri;}.cls-3{letter-spacing:0em;}.cls-4{letter-spacing:-0.01em;}.cls-5{letter-spacing:-0.01em;}.cls-6{letter-spacing:-0.01em;}.cls-7{letter-spacing:-0.01em;}.cls-8{letter-spacing:-0.01em;}.cls-9{letter-spacing:0em;}.cls-10{letter-spacing:0em;}.cls-11{letter-spacing:0em;}.cls-12{letter-spacing:-0.03em;}.cls-13{letter-spacing:-0.02em;}.cls-14{letter-spacing:-0.01em;}.cls-15{letter-spacing:-0.04em;}.cls-16{letter-spacing:-0.01em;}</style></defs><rect class="cls-1" x="0.46" y="0.18" width="764.84" height="194.73"/><text class="cls-2" transform="translate(26.83 48.01)">З<tspan class="cls-3" x="16.1" y="0">а</tspan><tspan class="cls-4" x="32.29" y="0">т</tspan><tspan class="cls-5" x="45.16" y="0">е</tspan><tspan x="61.87" y="0">м п</tspan><tspan class="cls-6" x="110.25" y="0">е</tspan><tspan x="126.7" y="0">да</tspan><tspan class="cls-7" x="161.96" y="0">г</tspan><tspan x="173.34" y="0">ог пр</tspan><tspan class="cls-6" x="246.27" y="0">е</tspan><tspan x="262.72" y="0">дл</tspan><tspan class="cls-8" x="299.04" y="0">о</tspan><tspan x="316.66" y="0">жила </tspan><tspan class="cls-8" x="399.78" y="0">д</tspan><tspan class="cls-9" x="418.44" y="0">е</tspan><tspan class="cls-10" x="435.23" y="0">т</tspan><tspan x="448.33" y="0">ям произнести</tspan><tspan x="0" y="40.8">данную фра</tspan><tspan class="cls-11" x="174.6" y="40.8">з</tspan><tspan class="cls-12" x="188.81" y="40.8">у</tspan><tspan x="203.32" y="40.8">, по-разно</tspan><tspan class="cls-5" x="350.16" y="40.8">м</tspan><tspan x="372.95" y="40.8">у опр</tspan><tspan class="cls-6" x="449.52" y="40.8">е</tspan><tspan class="cls-8" x="465.97" y="40.8">д</tspan><tspan class="cls-13" x="484.63" y="40.8">е</tspan><tspan x="500.99" y="40.8">ляя </tspan><tspan class="cls-8" x="558.26" y="40.8">ц</tspan><tspan class="cls-13" x="576.36" y="40.8">е</tspan><tspan x="592.71" y="40.8">ль</tspan><tspan x="0" y="81.6">выс</tspan><tspan class="cls-14" x="53.31" y="81.6">к</tspan><tspan x="68.58" y="81.6">азывания: сообщить, спросить, </tspan><tspan class="cls-15" x="527.35" y="81.6">у</tspan><tspan x="541.43" y="81.6">дивиться,</tspan><tspan x="0" y="122.4">обра</tspan><tspan class="cls-16" x="70.19" y="122.4">д</tspan><tspan x="88.83" y="122.4">ов</tspan><tspan class="cls-3" x="123.05" y="122.4">а</tspan><tspan x="139.24" y="122.4">ться, о</tspan><tspan class="cls-7" x="232.97" y="122.4">г</tspan><tspan x="244.34" y="122.4">орчиться.</tspan></text></svg>