<svg id="Слой_1" data-name="Слой 1" xmlns="http://www.w3.org/2000/svg" xmlns:xlink="http://www.w3.org/1999/xlink" viewBox="0 0 759 1090"><defs><style>.cls-1,.cls-24{fill:none;}.cls-2{clip-path:url(#clip-path);}.cls-3{clip-path:url(#clip-path-2);}.cls-4{fill:url(#Безымянный_градиент_3);}.cls-5{fill:url(#Безымянный_градиент_2);}.cls-6{fill:#5f1a04;}.cls-7{fill:#ffb988;}.cls-8{fill:#f68d56;}.cls-9{fill:#ffa975;}.cls-10{fill:#a64614;}.cls-11{fill:#fff;}.cls-12{fill:#2b3e00;}.cls-13{fill:#fffeff;}.cls-14{fill:#6e2b02;}.cls-15{fill:#923403;}.cls-16{fill:#a03f06;}.cls-17{fill:#fc7440;}.cls-18{fill:#fe965d;}.cls-19{fill:#fea670;}.cls-20{fill:#ff6a5b;}.cls-21{fill:#f45046;}.cls-22{fill:#fe7965;}.cls-23{fill:#f56552;}.cls-24{stroke:#ff1d25;stroke-miterlimit:10;stroke-opacity:0.29;stroke-width:0.25px;}.cls-25{fill:#b3b3b3;}.cls-26{fill:#919296;}.cls-27{fill:#064a71;}.cls-28{fill:#096490;}</style><clipPath id="clip-path"><rect class="cls-1" x="-0.43" y="8.75" width="759.91" height="1081.06"/></clipPath><clipPath id="clip-path-2"><rect class="cls-1" x="-0.43" y="8.75" width="759.91" height="1310.2"/></clipPath><linearGradient id="Безымянный_градиент_3" x1="-577.54" y1="1203.31" x2="-576.54" y2="1203.31" gradientTransform="matrix(379.35, 0, 0, -381.6, 219152.36, 459522.85)" gradientUnits="userSpaceOnUse"><stop offset="0" stop-color="#b05305"/><stop offset="1" stop-color="#863402"/></linearGradient><linearGradient id="Безымянный_градиент_2" x1="-577.34" y1="1203.36" x2="-576.34" y2="1203.36" gradientTransform="matrix(333.46, 0, 0, -335.43, 192605.29, 403972.45)" gradientUnits="userSpaceOnUse"><stop offset="0" stop-color="#8a3801"/><stop offset="0.04" stop-color="#8a3801"/><stop offset="1" stop-color="#6f2500"/></linearGradient></defs><g id="_1" data-name=" 1"><g id="Ресурс-35.svg"><g class="cls-2"><g class="cls-3"><g id="Слой_2" data-name="Слой 2"><g id="жен_копия_2" data-name="жен копия 2"><g id="Слой_45_копия_2" data-name="Слой 45 копия 2"><path class="cls-4" d="M339.62,36.19c-2.19-7.68-14.73-13-22.57-16.19-40.7-16.64-64.17-9.84-64.17-9.84-17.29,1-30.45,4.87-56.78,12.61-23.54,6.9-32.43,11.64-35.74,13.49-16.31,8.94-26.68,19.41-34,26.9A185.86,185.86,0,0,0,98.66,100,198.69,198.69,0,0,0,79,148.59c-6.15,23.65-6.19,41.47-6.26,65.65-.1,32.84-.15,51.06,7.14,74.19,3.44,10.91,7.75,20.58,12.54,40.46,3.44,14.36,5.3,22.29,5.37,33.28,0,4.21-.14,17.33-8.49,43.17C82.94,425,80.21,426.17,73.66,444c-5.77,15.73-15.33,42.29-14.3,76a168,168,0,0,0,20.55,76c21.82,38.75,58,56.82,68.85,62,25.09,12.15,45,13.9,80.9,17.09,42.23,3.72,80.84,6.67,121.14-13,23.69-11.6,36.79-25.52,39.78-28.78,15.79-17.23,21.92-34.15,29.5-55.76,18.42-52.51,16.22-96,15.65-105.21-1.39-22.55-2.44-38.94-10.73-58.88-5.94-14.27-9.19-22-11.81-37.4-2.67-15.76-2.46-27.23.6-40.46,12.85-55.43,15.46-58.33,19.22-78.24,3.35-17.7,8.48-46.06,3.58-81.84a243.3,243.3,0,0,0-13.35-52.1A248.21,248.21,0,0,0,402.62,80.7c-7.84-13.42-13.1-19.94-19.67-25.63-8.12-7-15.47-12.61-23.69-13.93-13.18-2-11.4,2.69-16.31.22C341.11,40.44,340.14,38.1,339.62,36.19Z"/><path class="cls-5" d="M346.9,40.09c-.09-3.24-3.24-5.81-12.55-11.09-11.28-6.44-16.93-9.66-23.24-11.69-9.52-3.09-16.57-3.51-30.1-4.21-14.54-.74-26.21-1.4-41.42,1.5-9.84,1.85-18.41,4.63-30.09,8.41-6.75,2.17-11,3.13-16.39,5.69a83,83,0,0,0-17.59,11.4,177,177,0,0,0-27.71,29.08c-14.37,18.36-21.56,27.54-28,39.56-14.94,27.75-18.72,52.88-21.17,70.09a219.47,219.47,0,0,0-1.5,55.8c1.65,15.84,5.47,29.84,13.1,57.84s11.15,35.33,13.11,54c1.2,11.11,2.3,22.18,0,36.28-2,12.21-4.56,14.59-16.39,44.65-7.5,19.06-11.71,29.86-15.79,45-3.54,13.11-5.77,21.35-6.55,31.77-1.88,25.77,6.43,46,11.12,57s18.27,42,51,63.25c29.63,19.28,58.43,19.83,87.32,20.39,25.08.47,67.72.73,110-26.09,18.11-11.51,37.28-23.65,48-47.06,7-15.26,7.67-29.44-8.95-135.48-6-38.08-7.91-48.16-5.36-65.65,3.87-26.5,12.25-30.09,25.08-69.85,8.05-25,15.64-48.63,15.21-80.34a199.72,199.72,0,0,0-13.41-68c-10.16-26.29-22.39-40.95-25.08-44.08a115.07,115.07,0,0,0-22.67-20.68c-8.82-6-17.57-4.2-24.43-12.29-1.89-2.23-6.25-7.37-5.05-12.62.94-4.2,4.68-5,13.4-13.78C346.59,42.75,346.93,41.11,346.9,40.09Z"/><path class="cls-6" d="M289.83,374.91c-4.18,7.67.19,20,4.47,29.67,8.59,19.33,14.16,27.59,21.16,41.07,13.38,25.81,12.32,33,22.64,41.07,6.86,5.39,21.13,14.77,28.91,9.89s3.59-21.36-.89-61.75c-4.11-37-6.16-55.46-3.88-71.64,3.58-25.36,10.78-24.56,24.74-66.55,8.65-26,16.18-48.67,16.39-78.84.1-14.51,3-36.78-12.82-68.34-3.64-7.28,2.63,2-41.65-49.84-4.54-5.31-20.48-14.09-26.59-18.43-3-2.12-.82-1.24-7.75,4.72-4.83,4.21-12.54,8.41-12.22,9s7.21-2.37,13.12-2.7c4.32-.24,5.74,6.53,6.85,7.5,10.3,8.9,9.34,7.85,12.81,11.09,4,3.71,1.63,1.71,21.46,21.57,16.49,16.54,18.48,20.75,19.67,23.09,2,3.9,5.88-.14,11.62,22.43a200.87,200.87,0,0,1,5.06,24.88c.79,4.77.2,11.89.31,19.2,0,5.46,0,13.78-7.46,42.85-3.47,13.57-8.36,21.83-14.9,37.47C361,326,356.15,326.75,354.49,329c-3,4.07-5.06,7.19-21.75,18.88-6.82,4.78-19.76,13.92-33.67,22.18C294.61,372.77,291.54,371.84,289.83,374.91Z"/><path class="cls-7" d="M226.21,344.93c-2.79,5.61.47,11.45,1.78,22.93a103.36,103.36,0,0,1,0,27.89c-1.89,12.05-3.43,21.73-10.72,28.76-4.29,4.14-7.22,5.72-32.19,13.28-19.62,5.93-20,7-20.78,8.31-8.11,13.35,24.26,47.29,48.5,67.9,28,23.83,44.71,38,68.39,36.45,31.28-2.11,51-30.15,61.68-45.43,15.54-22.15,27.41-52.62,17.66-61.85-2.27-2.16-3.37-2.59-23.47-6.52-17.1-3.33-20.22-4.95-22.3-6.29-8.36-5.26-12.38-13-15.2-18.44a70.39,70.39,0,0,1-7.15-26.52c-1.4-18.13,4.48-22.91,0-32.37-4.19-8.71-12.84-12.46-18.33-14.85-15.82-6.84-30.27-2.18-38.44.45C229.52,340.6,228.13,341.07,226.21,344.93Z"/><path class="cls-8" d="M223.09,340.44c.44,3.59,4,15.28,4,18A125.65,125.65,0,0,0,228.9,376c.89,3.6,11.15,15.3,14.3,17.54s21.44,15.29,27.7,17.61,16.54,6.29,18.77,6.29,13.43.9,13.43.9-1.8-4.94-3.59-8.54-7.59-22-7.59-25.63-.89-13-.89-18.88-21.91-12.62-25.09-16.19S223.09,340.44,223.09,340.44Z"/><path class="cls-9" d="M171.83,304.47a145.83,145.83,0,0,0,14.6,18.88,136.46,136.46,0,0,0,20,17.39,192.46,192.46,0,0,0,30.1,18c19.32,9.75,30.13,12.2,33.38,12.89a58.85,58.85,0,0,0,15.48,1.5,61,61,0,0,0,18.79-4.21c2.62-1,10.61-4.12,24.12-13.79a155.83,155.83,0,0,0,27.13-23.37,130.49,130.49,0,0,0,20-28.18c6-11.61,8.46-20.79,11.91-33.89a277.58,277.58,0,0,0,7.46-42c2.28-19.32,3.38-29.19,1.18-39.26-.62-2.89,1.4-7.43-9.68-29.68-15.54-31.19-21.37-33.29-23.39-36A118,118,0,0,0,337.5,98.47c-10.18-7.57-22.29-18.65-44.4-17.38-15.48.9-45.68,31.91-56,38.08C229,124,205.2,136.84,199,139.84c-3.89,1.87-44.71,14.7-46.2,29.44a305.2,305.2,0,0,0,.3,68.36C155.44,258.29,158.59,283.52,171.83,304.47Z"/><path class="cls-7" d="M168.84,197.45c-.29,11.09-1.56,7.67,1.2,46.77,2.13,30.25,3.19,45.36,8.36,56.35,4.91,10.46,10.71,17.17,17.88,25.47a152.42,152.42,0,0,0,38.44,32.08,164.22,164.22,0,0,0,26.23,12c12,4.58,16.26,5,18.48,5.1,8.54.43,15.75-2.12,24.14-6.3A162,162,0,0,0,353,330.25a139.79,139.79,0,0,0,20.57-32.38c6.26-13.88,8.63-30.33,13.1-62.65,4.61-33.29,3.71-39.4,2.09-45C385.7,179.6,380.43,172,369.73,157c-8.76-12.38-10-11.79-23-28.18C327.26,104.14,322.51,93.29,314,94c-3.7.34-4.8,2.58-12.8,9.3-4.19,3.46-13.29,8.5-28.62,18.58-14.27,9.37-24.93,15.19-42.93,25.79-15.56,9.12-29.51,16.82-44.11,25.78-3,1.85-13.48,6.88-16.39,14.38C167.52,192,168.89,196,168.84,197.45Z"/><g id="Слой_44_копия_2" data-name="Слой 44 копия 2"><path class="cls-10" d="M327.08,179.69c4-1.41,5.35-2.89,8.93-4.49a40.69,40.69,0,0,1,15-3.15,31.83,31.83,0,0,1,15.41,2.48,29,29,0,0,1,10.06,7.86c2.62,3.23,4.53,7,4,7.42s-2.61-2.5-6.71-5.4a34.37,34.37,0,0,0-10-4.95c-6.7-1.78-12.67.17-19,2.26s-8.44,4-14.74,4.72c-.87.09-8.08.84-8.71-1.13-.48-1.4,2.72-3.9,2.9-4A10.4,10.4,0,0,1,327.08,179.69Z"/><path class="cls-11" d="M322.9,220.44c.67,1.91,2.63,2.8,6.26,4.35a39.32,39.32,0,0,0,10,2.8,49.33,49.33,0,0,0,13,0,53.66,53.66,0,0,0,13.26-2.8c5.27-1.95,7.22-3.78,8.37-5.09s2.64-3.16,2.69-5.26c.09-6.45-13.3-11-14.61-11.38a35.37,35.37,0,0,0-19.51-.61,30.54,30.54,0,0,0-16,9.58C324.75,213.89,321.85,217.38,322.9,220.44Z"/><ellipse class="cls-12" cx="350.09" cy="214.73" rx="13.48" ry="12.74"/><ellipse cx="349.78" cy="213.95" rx="9.16" ry="8.66"/><ellipse class="cls-13" cx="343.75" cy="208.92" rx="3.65" ry="3.15"/><path class="cls-14" d="M321.51,217.83c-1.12-1.48,4.44-7.41,5.22-8.24a31.08,31.08,0,0,1,8.64-7,34.42,34.42,0,0,1,20.71-3,31.38,31.38,0,0,1,9.24,3.6,51.61,51.61,0,0,1,6.55,4.49,16.12,16.12,0,0,1,4.48,5.26c.4.61,2.6,3.47,2.07,3.74s-4.18-2.43-5.35-3.6c0,0-1-2.3-6-5.09A27,27,0,0,0,357,204.37a37.52,37.52,0,0,0-13.4.61c-3.92.66-5.87,1-8.06,2.24a29.62,29.62,0,0,0-7,6.15c-1.91,2.3-3.15,4.55-5.57,4.8C322.65,218.18,321.88,218.27,321.51,217.83Z"/><path class="cls-10" d="M249,178.52c-4-1.4-5.36-2.89-8.94-4.5a40.38,40.38,0,0,0-15-3.14,31.8,31.8,0,0,0-15.41,2.47,29.47,29.47,0,0,0-10.07,7.86c-2.63,3.24-4.53,7-4,7.43s2.61-2.5,6.7-5.39a34,34,0,0,1,10-4.95c6.71-1.8,12.67.17,19,2.24s8.44,4,14.76,4.73c.86.09,8.08.85,8.71-1.13.47-1.4-2.79-3.91-2.9-4A10.93,10.93,0,0,0,249,178.52Z"/><path class="cls-11" d="M253.22,220.12c-.67,1.9-2.64,2.8-6.26,4.34a39.87,39.87,0,0,1-10,2.81,49.33,49.33,0,0,1-13,0,54.78,54.78,0,0,1-13.27-2.81c-5.27-2-7.22-3.77-8.36-5.1s-2.65-3.14-2.69-5.24c-.1-6.45,13.29-11,14.61-11.39a35.27,35.27,0,0,1,19.51-.6,30.54,30.54,0,0,1,15.94,9.59C251.31,213.61,254.21,217.1,253.22,220.12Z"/><ellipse class="cls-12" cx="227.06" cy="214.36" rx="13.48" ry="12.74"/><ellipse cx="226.75" cy="213.57" rx="9.16" ry="8.66"/><ellipse class="cls-13" cx="222.03" cy="207.09" rx="3.65" ry="3.15"/><path class="cls-14" d="M254.5,216.67c1.11-1.49-4.45-7.42-5.23-8.24a30.94,30.94,0,0,0-8.64-7,34.48,34.48,0,0,0-20.71-3,31.36,31.36,0,0,0-9.24,3.59,53.16,53.16,0,0,0-6.55,4.5,16.12,16.12,0,0,0-4.47,5.24c-.41.62-2.61,3.48-2.08,3.74s4.18-2.42,5.35-3.58c0,0,1-2.32,6-5.11A27.2,27.2,0,0,1,219,203.22a38,38,0,0,1,13.41.59c3.91.68,5.86,1,8.05,2.26a29.81,29.81,0,0,1,7,6.14c1.91,2.31,3.15,4.54,5.57,4.79C253.41,217,254.16,217.09,254.5,216.67Z"/></g><path class="cls-15" d="M331.55,32.07c.9-1.4,1.79-3.38,2.68-3.38s3.58,2.7,5.14,3.6a71.37,71.37,0,0,1,6.71,6.07,11.35,11.35,0,0,1,.22,2.47c0,1.57-3.35,9.67-4.48,11.91S324.63,75,323.5,77,313,89.39,308.31,91.47s-35.76,19.62-41.13,22.26-32.4,19.62-41.13,23.61-34.41,20.17-39.73,23.55-29.8,18.57-32,19.26.53-6,.75-9.81.89-17.54.89-19.34,3.79.9,5.58.45,20.77-9.81,23.24-11.21,34.41-19.63,36.88-21.35,27.7-18,30.66-19.78S284.45,77.74,286.45,76s25.09-20.23,26.61-21.59,13.63-17,14.52-18.35A27.38,27.38,0,0,1,331.55,32.07Z"/><path class="cls-16" d="M161.76,144c14.32-7,38.9-20.68,38.9-20.68,13.41-9.53,7.71-3.72,42.47-25.64,14.27-9,21.46-13.52,29.49-19.33C291.76,64.55,301.34,57.64,307,49.6,312.5,41.89,321,36.37,325.37,28c.23-.47,1.14-2.23,2.67-2.47,1.88-.3,3.72,1.85,4.25,2.47.81.93,1.4,1.59,1.4,2.46,0,1.5-1.83,2.25-3.79,3.83-.77.62-1.15,1-4.48,5.17-5.57,7-8.44,10.52-9.84,12.37-6.62,8.62-18.46,18-29.1,26.3-14.28,11.21-26,19-30.84,22.26-19.69,13-17.07,9.39-48.78,28.78-12.12,7.42-26,11.66-38,19.33-2.51,1.61-8.81,5.75-11.85,3.59-1.75-1.25-2.48-4.67-1.39-6.07.4-.49,1.39-.78,3.36-1.4A14,14,0,0,0,161.76,144Z"/><path class="cls-6" d="M153.57,118.1a247.3,247.3,0,0,0-5.14,40c-2.79,43.34-3.49,36.25-3.57,48.78a365.66,365.66,0,0,0,3.34,50.36c2,16,3.11,17.63,7.61,47.66s4.3,34.25,4,37.47c-1.28,15.34-6.33,26.21-14.3,43.46-3.82,8.23-9.92,18.94-21.93,40-13.79,24.2-22.09,37.85-17.66,42.72,1,1.11,2.46,2.09,3.58,1.57,19.22-9,32.49-16,33.74-16.42,4.92-1.79,27-12.61,52.53-19.78,6.28-1.78,25.84-1.93,31.06-33,2.23-13.25,1.4-22,.22-36.87-.25-3.4-2.34-11.64-4.18-12.62-11.62-5.85-15.42-10.78-28.16-20.9-8.84-7-11.85-10.35-17.44-18.44-9.11-13.2-12.54-18.88-15.65-45.41a372.29,372.29,0,0,1-4-37.55c-1.39-20.88-2.66-38.68-2.24-47,.68-13.26.57-21.32.68-26.52.25-12.62-.46-22.11.22-28.34,1.49-13.75,2.06-24.4,1.56-24.5S155.17,110.77,153.57,118.1Z"/><path class="cls-17" d="M298.55,217.54c1.27,11.21-.46,5.93.45,11.38a90,90,0,0,0,3.34,14.69c1.65,5.13,5,8.41,8.36,15.13a13,13,0,0,1,1.79,7,12.32,12.32,0,0,1-3.12,7c-3.39,3.92-8.06,4.81-11.93,5.54a46.67,46.67,0,0,1-10.86,1.15c-.85,0-4.08.53-4.1,0s1.29-1.1,4.41-1.5c9.15-1.21,8.19-1.77,11-3.38a25.49,25.49,0,0,0,5.34-4.07c3.66-3.25,2.91-4.46,3.13-5.69.42-2.3,0-3.81-1.64-7.19s-2-5.13-5-11.68c-1.71-3.83-2-5.33-3.19-11-1-5-.9-9.08-.9-15.88,0-4.28,2.44-10.61,3-10.64S298.16,214.23,298.55,217.54Z"/><path class="cls-18" d="M300.11,213.64c1.28,11.22.59,13.12,1.49,18.59A37.18,37.18,0,0,0,307,247.65c2.95,4.49,6,6.45,9.38,13.19a12.68,12.68,0,0,1,1.78,7,12.25,12.25,0,0,1-3.12,7c-3.37,3.93-8.05,4.81-11.91,5.61a58.3,58.3,0,0,1-10.89.45c-.86,0-10.56,0-10.58-.59s5.23-.91,8.36-1.21c9.27-.89,10.29-1.09,13.12-2.69a15.83,15.83,0,0,0,5.81-3.76c3.65-3.25,2.9-4.45,3.12-5.69a7.94,7.94,0,0,0-1.63-7.19c-2-2.8-3.47-6-6.41-12.62a61.51,61.51,0,0,1-4.77-13.64c-1-5-1-8.79-1-15.59,0-4.27.19-11.21.74-11.21S299.74,210.33,300.11,213.64Z"/><path class="cls-19" d="M246.09,294.12a8.29,8.29,0,0,0-2.34,3.61,6.66,6.66,0,0,0,3.47,8.87c1.8.86,2.25,0,5.24.78,1.69.41,4.06,1,5.37,2.81a7.06,7.06,0,0,1,1,4c.35,4,3,7,5.93,10.12a29.17,29.17,0,0,0,14.64,8.24c3.36.91,13.72,3.7,23.58-1.68,2.47-1.4,9-4.91,12-11.92,1.39-3.4,1.46-6.28,4.18-7.86,1.87-1.12,2.94-.35,8.36-1.4,3.46-.65,5.2-1,6.37-2.26,2.41-2.64,1.4-6.8,1.23-7.19-.77-2.81-3-5.43-4.25-5.06-.82.23-.64,1.62-1.67,3.94a16.47,16.47,0,0,1-3.47,4.72c-3.29,3-8.84,2.17-10.83,1.91-16.29-2.15-32.86.73-49.28.67a23.54,23.54,0,0,1-12.75-3.59c-1.55-1.05-4-2.7-4.46-5.4-.38-2,.5-4-.23-4.38S246.69,293.62,246.09,294.12Z"/><path class="cls-20" d="M257.27,310.16c-1.2,2.8,3.39,7.5,6,10.22a31.86,31.86,0,0,0,11.4,7.54c5.72,2.13,10.48,1.91,15.42,1.68s8.66-.4,13.08-2.59c3.09-1.53,5-3.34,8.71-7,4.43-4.27,4.68-5.84,4.47-6.85a5,5,0,0,0-3-3c-8.05-4-23.17-1.66-36.66-1.47C264.71,308.91,258.5,307.36,257.27,310.16Z"/><path class="cls-21" d="M249,300.08a9.85,9.85,0,0,0,5.7,2.58,28.54,28.54,0,0,0,5.14.35c4,.11,3.15-.62,10.71-1.25,5.71-.46,5.23-.73,10.74-1.23,3.79-.34,7.77.43,13,.56,4.42.11,7.61-.92,11.84,0,2.3.51,2.71.79,9.4,2.48,5,1.26,6.11,1.4,7.7,1.24,4.25-.61,6.75-3.5,7.15-3.05s-1.29,2.81-3.68,4.84A21.86,21.86,0,0,1,316,311.1a125.82,125.82,0,0,1-20,2.58,133.8,133.8,0,0,1-18.78-.45A85.65,85.65,0,0,1,263,310.76a47,47,0,0,1-12.62-5.84c-2.08-1.4-4.19-3-3.92-4.61.1-.52.47-1.27,1-1.41S248.55,299.58,249,300.08Z"/><path class="cls-22" d="M264.87,315.94a14.8,14.8,0,0,0,5,4.2c5.92,3.56,6.45,4.07,7.48,3.72a4.32,4.32,0,0,0,2.58-4.05,5.15,5.15,0,0,0-2.58-3.93c-1.75-1.15-2.79-.49-6.37-1-4.33-.63-6.62-2.12-7.15-1.4C263.5,314,264.37,315.17,264.87,315.94Z"/><path class="cls-23" d="M275.93,304.92c-3.09.75-2.31-.11-7.15.89-3.17.66-4.76,1-4.8,1.57s2.32,1.41,4.58,2.15c4.18,1.26,7,2,9.17.67.42-.25,2-1.19,2-2.7a2.89,2.89,0,0,0-1.79-2.58A3,3,0,0,0,275.93,304.92Z"/><path class="cls-24" d="M246.89,300.08l3,4.28,3.13,2.35,4.58,2.13,5,1.81,5.92,1.12,5.92.79,6.48.78h7.38l11-.22,10.4-1,6.25-1.12,5.93-1.8,5.25-3.26,3.57-3.94"/></g><g id="Слой_46_копия_2" data-name="Слой 46 копия 2"><path class="cls-7" d="M382.21,447.45c7.81,0,14.27,5,23.24,12a99.6,99.6,0,0,1,23.24,26.39c17.21,26.94,29,50,30.4,52.75,20.9,41.26,31.45,61.89,32.78,65.36,3.54,9.21,8.36,22.88,20.9,36a85.1,85.1,0,0,0,17.28,13.79c53.3,33.27,101.17,117.06,132,140.44.81.62,7.43,7.47,8.49,10.78,3.14,9.89-7.18,23.33-21.46,20.7-6.57-1.22-8.28-4.94-10.27-7.66-13.42-18.22-44.38-32.16-61.69-46.75-33.44-28.15-36-24-62-46.17-28.43-24.24-46.52-47.23-57.8-61.75-31-39.84-32.06-54.67-62-86.33-2.6-2.8-11.84-12.39-23.24-26.37-17.47-21.42-26.2-32.13-28-42.57C339.4,481.07,362.13,447.55,382.21,447.45Z"/><path class="cls-7" d="M25.81,945.64c-8.94,9.29-17.21,25.36-21.46,42C1.49,998.83-.35,1006-.42,1016.38c0,8.61-.14,20.24,6,32.38,8.5,16.92,25.82,28.46,29.27,25.78,1.68-1.4-4.74-9.81-2.39-12,1.59-1.48,5,1.74,10.73.61,2.4-.48,6.29-2,6.55-4.21.39-3.25-7.12-5.82-6.55-7.79s9.48-.38,10.14-2.4c.57-1.78-6.07-3.67-10.74-9-7-7.94-2-19.21-1.39-28.47.82-10.78-1.88-12.78,0-12.62,1.53.15,1.92-1.77,5.51,9.9,3.4,11,7.19,12.25,7.74,21,.39,6-1.12,9.52,1.2,11.4s7.53,1.1,10.13-1.79c2.86-3.2,1.19-7.29.6-19.19-.3-6.2.2-4,0-15-.14-7.35-.27-15-1.19-23.38-1.4-12.38-3-13.41-3.59-20.39-1.08-12.42,3.17-19.25,8.95-36,7-20.08,3.79-18.77,10.73-40.77,6.45-20.46,9.66-23.09,19.07-47.35a437.91,437.91,0,0,0,17.28-53.36c2.61-10.65,3.66-17.41,9-64.75,5.64-50.56,8.46-75.83,8.93-83.93,2.23-38-.08-44.37,5.37-64.74,5.68-21.26,10.63-23.33,13.71-43.77,0,0,3.76-25.11-6-55.75-2.92-9.21-6.13-15.76-11.33-16.83-3.13-.61-5.75,1.05-13.7,6.61-13.18,9.21-19.76,13.8-21.46,15.59-7.9,8.31-11.61,17.59-14.31,26.38-8.56,27.88-9.27,58.51-9.53,76.14-.66,42.22.5,53.56-1.2,88.74-1,21-2.09,30.84-3.57,40.16C69.91,730.21,66,737.7,61.56,759.2,58,776.47,58.23,782.66,55,814.35c-4.08,40.18-5.46,38.64-8.64,66.84-.73,6.41-3.5,18.82-4.47,25.24a157,157,0,0,1-6,24.28c-.62,2-1,6.28-3.58,8.41A66.09,66.09,0,0,0,25.81,945.64Z"/><path class="cls-7" d="M691.29,818.39c12.33,3.66,27.39,13.53,39.23,25.89,8,8.32,13.07,13.64,18.24,22.67,4.26,7.46,10,17.54,10.66,31.14.89,18.94-8.54,37.55-12.79,36.89-2.11-.32-.66-10.86-3.79-11.6-2.12-.51-3.54,4-9.05,5.83-2.33.77-6.42,1.4-7.76-.41-1.94-2.63,3.36-8.58,1.89-10s-8.36,4.37-10,2.93,3.47-6.2,4.94-13.14c2.17-10.36-7.63-17.73-12.78-25.46-6-9-4.63-12-6.16-10.94-1.27.89-2.55-.58,0,11.34,2.45,11.21-.26,14.23,3.52,22.09,2.59,5.4,5.65,7.73,4.54,10.52s-6,4.68-9.75,3.44c-4-1.4-4.6-5.74-9.91-16.4-2.79-5.61-2.12-3.35-7.34-13-3.47-6.46-7.1-13.17-10.41-20.94-4.9-11.44-4-13.14-6.88-19.51-5.12-11.35-12.16-15.19-25.39-26.88-15.87-14,11.68-35.66,15.65-30.6,4.85,6.19,3.43,4.5,11.57,12.26,1.55,1.49,9.48,10.87,12.72,11.44A65.77,65.77,0,0,1,691.29,818.39Z"/></g><g id="Слой_47_копия_2" data-name="Слой 47 копия 2"><path class="cls-25" d="M405.21,873c-2.79-8.71-3.54-17.19-7.54-25.4-5.14-10.53-7.37-23.65-11.48-34.63-10.39-27.73-7.5-28.35-12.46-39.59-1.72-3.87-.63-14-5.58-25-5.35-11.89-7.71-17.06-8.36-24.89-.38-4.51.25-8.8,1.49-17.38a227.41,227.41,0,0,1,6.26-29.08c3.16-11.39,3.59-10.47,7.44-23.38,5.28-17.66,8-31.3,8.65-34.47,2.68-13.57,4-20.34,4.19-24,.22-5.51-.07-10.85,1.78-11.4s3.94,3.11,6,6c4.39,6.25.6-.7,17,18.88,14.72,17.6,28.6,35.67,28.6,35.67,24.82,32.32,37.34,48.6,42.62,54.25a365.09,365.09,0,0,0,33.38,31.49c8,6.63,13.85,10.9,25.63,19.47,0,0,48.2,46.89,88.49,63.55.63.26,9-1.85,10.74-2.09,4.08-.56,13.49-4.9,16.72-9.9,6.81-10.63,2.19-1.4,6-10.49,1.29-3.12-5.07-12.61-9.84-19.79C654,768,638.13,748.45,634,744.8c-24.79-21.36-30.66-29.37-30.66-29.37-11.62-9.89-18.12-16.66-38.44-35-11.94-10.81-23.56-18-31.88-27.28a186.84,186.84,0,0,0-14-14.68c-4.75-4.42-6-5-8.64-8.1-4.11-4.74-5.84-8.61-9.84-17.09-5-10.57-7.82-16.59-10.72-22.18-4.61-8.86-5.5-9.16-11.33-19.49-6.66-11.83-7-14-13.7-27-6.23-11.9-6.1-10.25-17-29.68-8.36-14.79-10.39-19.37-17.58-31.18-8.65-14.2-11.68-17.56-14.3-20.07-6.23-6-11.71-8.68-22.65-14.09a172.4,172.4,0,0,0-36.33-13.25c-12.3-2.89-10.48-.81-18.78-3.29-3.73-1.12-7.61-1-9.24.89-.94,1.08-1.08,1.06-.89,2.11,0,0,.88,4.71-4.18,16.48-4.26,9.9-29.81,16.94-54.53,15.28-10.25-.68-23.42-5.79-49.77-15.88-11.32-4.35-16.18-6.88-18.12-11.69-.72-1.73-2.24-6.56-5.07-6.9a12.17,12.17,0,0,0-3.28.6,38.28,38.28,0,0,0-4.18,1.2c-4,1.4-18.74,5.42-28.9,8.69-13,4.2-25.51,8.21-39.94,16.82-12.27,7.29-17.55,12.91-19.67,15.28a72.07,72.07,0,0,0-11.62,18.3,97,97,0,0,0-8,38.66c-1,36.29-2.66,4.35-4.48,69.55-1.08,39.54-.44,50.55-2.67,78.5-1.09,13.63-2.18,22.59-3.58,31.48-3.35,21.09-7,31.29-10.43,46.45-3.16,13.65-.68,7.11-8.36,64.16-6,44.86-9,67.29-9.53,68.34a6.56,6.56,0,0,0-.6,4.2c.93,4,6.06,4.31,25.33,9.9,3.82,1.11,8.37,2.47,10.43.3A5.7,5.7,0,0,0,78,902.17c.55-4.42,1.87-5.61,4.48-12.3,2.94-7.57,5.4-16.74,7.75-24.28C94.12,853,95.55,852,102.73,833.22c5.16-13.51,8.88-23.28,12.54-36.27,4.18-14.87,6.13-26.49,8.64-41.37,2.48-15.15,2.19-16.54,4.7-33.26,4.67-31,7.3-36.62,10.44-59.06,2.92-21,4.18-31.52,3.87-45-.1-4.36-.39-11.32.29-11.4.9-.1,2.46,11.44,4.77,22.19,5,23.12,10.05,26.72,16.39,48.25,5,17.09,9,30.38,7.46,47.37-.84,8.82-2.67,14.43-14.32,44.37-11,28.24-7,26.25-12,42.22-6.56,20.6-14.93,39.4-16,46.51-.33,2.22-.75,5.93-1.72,11.71-1.61,8.83-2.18,8.84-1.79,10.19,1.7,5.83,13,6.9,39,10.5,18,2.49,9.92,1.61,20.9,3,20.22,2.56,32.15,4.07,47.38,5.11a524.49,524.49,0,0,0,53.05.89,455.73,455.73,0,0,0,56.91-5.08c15.74-2.46,12.28-2.81,37.55-7.5a121.67,121.67,0,0,0,23.25-6.3"/><path class="cls-26" d="M200.73,431.72c4.47,2.59,6.68,7,9.38,10.78,2.93,4.05,5.57,5.24,14.16,9.14,12.19,5.51,8.15,3.67,22.65,8.41a102.57,102.57,0,0,0,28,5.4,78,78,0,0,0,30.39-4.5c8.51-3,12.74-4.57,15.21-9s3.87-7.53,4.91-18c.15-1.5,3.74-1.64,5.81-1.8,3.87-.31,8.67,1.5,11.33,1.5,1.49,0-2.69,7.11-4.63,12a45.94,45.94,0,0,1-16.53,22c-9,6.3-17.53,7.14-31.75,8.55a126.09,126.09,0,0,1-32.18-.89c-14.77-2.42-24.69-6.83-36.65-12.14a87.57,87.57,0,0,1-26.81-18c-4.59-4.63-8.53-9.94-5.81-10.8,2.38-.74,4.18-2.22,7.15-2.24C197.54,432.13,199.73,431.13,200.73,431.72Z"/><path class="cls-26" d="M144.41,537.38c-4,14.73-5.95,22.32-6.56,29.33a101.75,101.75,0,0,0,1.8,28.18c4.75,26.27,12.54,44,17.86,59.35,10.68,30.66,15.1,46.26,13.72,62.34-1.59,18.47-3.71,37.08-9,50.15A252.11,252.11,0,0,0,149.1,807c-2.44,9.35,12.72,10.56,20.34,11.54a670.51,670.51,0,0,0,107.31,4.8c27.77-1.14,55.15-6.9,82.86-9,8.5-.65,26-1.86,29.2-10.79,1.39-3.86-.58-7.34-4.19-15,0,0-7-8.41-17.75-36.32-6.11-15.71-6.3-23.84-6.69-34.42-.32-8.85,1.39-13.71,6-30.58,2.5-9.08,6.23-24,13.72-54,8.28-33.16,8.82-39.83,8.93-45.57.31-14.66-2.1-25.61-4.77-37.76-5.47-25-14.18-50.36-16.72-49.77-.67.15-.67,2.06,0,16.19,1.39,28.4,1.78,29.67,1.19,34.77a68,68,0,0,1-10.74,29.44c-6.38,9.53-13.57,14.56-22,20.38-8.07,5.52-20.91,6.9-45.59,7.49-16.12.39-1.59-.72-38.74,1.2-18.9,1-48.68-.61-59.3-2.39-7.15-1.21-8.37-1.8-13.12-5.4-8.92-6.73-8.07-6.62-18.48-34.47-3.83-10.28-5.38-12.35-6.55-19.2-1.64-9.64-1.39-21.68-1.2-26.37.2-6.84.62-10.06,0-10.19C151.4,511.32,147.21,526.92,144.41,537.38Z"/><path class="cls-25" d="M183.74,708.3a63.42,63.42,0,0,0,9.84,22.43c13.53,18.43,44.51,30.69,75.09,45,37.17,17.36,61.06,31.8,87.61,28.77,8.12-.93,14.3-3.24,17-8.09,3.69-6.65-1-14.65-7.15-28.78-12.23-28-7.13-27.1-17-46.75s-15-29.81-25.92-37.79c-14-10.2-31.12-10.09-65.27-9.88-28.44.18-17.59,4.64-57.14,9-3.92.43-12.05,1.27-16.1,7.2C181,694.74,182.39,701.88,183.74,708.3Z"/></g><g id="Слой_48_копия_2" data-name="Слой 48 копия 2"><path class="cls-27" d="M170,724.42c-7.7,4.49-5.8,22.75-5.36,22.78a14.89,14.89,0,0,0,.58-4.79c-.56-.14-5.66,17.83-6.55,21-10,35-17.15,48.15-25.08,74.3-5.43,18-8.37,32.72-13.12,62.94-15.79,99.38-23.83,179.85-23.83,179.85-12.54,125.19-15.33,190.15-17.3,190-.5,0-1.14-4.2,0-4.8,1.66-.87,4.83,6.7,11.93,11.39,11,7.29,23.1,2.08,25.62,7.8,1.39,3.07-1.83,5.21-1.18,9,1.54,9.14,23,12.62,26.81,13.2,60,9.19,81.65,9.58,81.65,9.58,69.85,1.29,64.27,3,88.81,1.81,15.16-.74,33.33-1.88,69.14-7.79,29.95-5,25.08-6.3,47.67-12.62,2.58-.71,11.32-1.62,13.7-7.19,1.4-3.18-.68-4.63.6-7.79,2.09-5.18,8.57-4,17.88-10.8,3.43-2.51,5.66-4.21,6.55-7.19,1.3-4.29-1.14-7.8-3-12.62-2.32-6.08-1.89-9.59-2.39-20.38-1.39-30.44-4.83-60.75-7.16-91.12-.95-12.45-4.4-38.08-11.32-89.32-6.1-45.25-9.15-67.87-12.54-86.33-6.61-36.32-14.06-62.65-19.66-85.14-7.57-30.33-10.75-46.71-17.89-67.73C378.73,765.57,375,773.61,371.4,752c-1.67-10.13-2.86-24-12.54-29.37-6-3.3-12.45-1.9-16.1-1.2-18.93,3.63-38.56-.28-57.81.6-49.54,2.29-74.32,3.44-84.62,2.4-7.53-.76-15.12,0-22.66-.6C173.94,723.51,172.08,723.23,170,724.42Z"/><path class="cls-28" d="M156.33,909.08c-1.2,4.2-1.79,19.18-3,26.37s-8.37,90.53-9.54,97.12S122.35,1268.78,122.35,1273s-1.78,13.78-1.78,15.59,7.15,5.38,13.71,6.59,91.77,18,110.25,16.82,106.09,1.81,111.5,1.21,26.81-5.4,32.18-7.8,30.39-10.79,34-12.61,11.92-7.8,12.55-9.59-2.39-39.58-3-46.77-20.26-226-19.66-227.81,33.31,253.58,33.31,253.58,4.18,1.19,5.95-.61a23.42,23.42,0,0,0,5.35-10.19c.6-3.59,1.78-36.56,1.78-40.16s-11.91-113.32-12.54-126.49S428.06,981,427.47,973.21s-9-40.76-9.54-43.75-9.75-44.71-10.73-49.16c-8-35.47-19.64-62.78-33.38-113.91-2.69-10-5.36-21-6.55-21-13.82,0-28,1.21-60.2,3.61-6.64.49-50.06,1.79-57.81,1.79s-58.41-1.2-62-3S156.33,909.08,156.33,909.08Z"/></g></g></g></g></g></g></g></svg>