<svg id="Слой_1" data-name="Слой 1" xmlns="http://www.w3.org/2000/svg" viewBox="0 0 804 171"><defs><style>.cls-1{fill:#e6e6e6;stroke:#ffac00;stroke-linecap:round;stroke-linejoin:round;stroke-width:3.13px;}.cls-2{font-size:34px;font-family:Calibri;}.cls-3{letter-spacing:0em;}.cls-4{letter-spacing:-0.01em;}.cls-5{letter-spacing:-0.02em;}.cls-6{letter-spacing:-0.06em;}.cls-7{letter-spacing:0em;}.cls-8{letter-spacing:-0.1em;}.cls-9{letter-spacing:-0.01em;}.cls-10{letter-spacing:0em;}.cls-11{letter-spacing:-0.01em;}.cls-12{letter-spacing:0em;}.cls-13{letter-spacing:0em;}.cls-14{letter-spacing:-0.01em;}.cls-15{letter-spacing:-0.01em;}.cls-16{letter-spacing:-0.01em;}.cls-17{letter-spacing:-0.01em;}.cls-18{letter-spacing:-0.01em;}</style></defs><rect class="cls-1" x="-0.04" y="-0.2" width="803.84" height="171.48"/><text class="cls-2" transform="translate(27.06 52.53)">Воспит<tspan class="cls-3" x="100.04" y="0">а</tspan><tspan class="cls-4" x="116.23" y="0">т</tspan><tspan class="cls-5" x="129.09" y="0">е</tspan><tspan x="145.45" y="0">ль </tspan><tspan class="cls-6" x="186.45" y="0">Т</tspan><tspan x="200.91" y="0">уг</tspan><tspan class="cls-7" x="228.06" y="0">у</tspan><tspan x="243.31" y="0">сова Н.</tspan><tspan class="cls-8" x="345.64" y="0">Р</tspan><tspan x="359.77" y="0">. попросила </tspan><tspan class="cls-9" x="539.24" y="0">д</tspan><tspan class="cls-10" x="557.9" y="0">е</tspan><tspan class="cls-11" x="574.68" y="0">т</tspan><tspan class="cls-12" x="587.55" y="0">ей</tspan><tspan x="0" y="40.8">произнести фра</tspan><tspan class="cls-13" x="230.31" y="40.8">з</tspan><tspan x="244.52" y="40.8">у «Собира</tspan><tspan class="cls-14" x="391.71" y="40.8">ю</tspan><tspan class="cls-15" x="416" y="40.8">т</tspan><tspan x="428.85" y="40.8">ся </tspan><tspan class="cls-4" x="467.04" y="40.8">т</tspan><tspan class="cls-16" x="479.9" y="40.8">е</tspan><tspan x="496.62" y="40.8">мные тучи»</tspan><tspan x="0" y="81.6">с разной ин</tspan><tspan class="cls-17" x="169.32" y="81.6">т</tspan><tspan x="182.1" y="81.6">онацией и эмоциональной окрас</tspan><tspan class="cls-18" x="663.22" y="81.6">к</tspan><tspan x="678.51" y="81.6">ой.</tspan></text></svg>